<?xml version="1.0" encoding="utf-8"?>
<!-- Generator: Adobe Illustrator 27.5.0, SVG Export Plug-In . SVG Version: 6.00 Build 0)  -->
<svg version="1.1" xmlns="http://www.w3.org/2000/svg" xmlns:xlink="http://www.w3.org/1999/xlink" x="0px" y="0px"
	 viewBox="0 0 750 500" style="enable-background:new 0 0 750 500;" xml:space="preserve">
<g id="BACKGROUND">
	<rect y="0.078" style="fill:#FFFFFF;" width="750" height="500"/>
</g>
<g id="OBJECTS">
	<g id="OFFICE">
		<polygon style="fill:#E8E8E8;" points="100.271,424.207 45.649,424.207 43.649,411.654 102.271,409.654 		"/>
		<polygon style="fill:none;stroke:#D6E7FC;stroke-miterlimit:10;" points="122.718,406.898 68.095,406.898 66.095,394.345 
			124.718,392.345 		"/>
		<polygon style="fill:none;stroke:#D6E7FC;stroke-miterlimit:10;" points="609.623,144.722 555,144.722 553,132.168 
			611.623,130.168 		"/>
		<polygon style="fill:#E8E8E8;" points="422.349,53.629 367.727,53.629 365.727,41.075 424.349,39.075 		"/>
		<polygon style="fill:none;stroke:#D6E7FC;stroke-miterlimit:10;" points="121.707,53.629 67.084,53.629 65.084,41.075 
			123.707,39.075 		"/>
		<polygon style="fill:#E8E8E8;" points="571.641,125.576 517.019,125.576 515.019,113.022 573.641,111.022 		"/>
		<polygon style="fill:#E8E8E8;" points="214.834,68.183 160.212,68.183 158.212,55.629 216.834,53.629 		"/>
		<polygon style="fill:#E8E8E8;" points="414.852,268.408 360.229,268.408 358.229,255.855 416.852,253.855 		"/>
		<polygon style="fill:none;stroke:#E8E8E8;stroke-miterlimit:10;" points="544.228,361.469 489.605,361.469 487.605,348.916 
			546.228,346.916 		"/>
		<polygon style="fill:#E8E8E8;" points="519.112,381.441 464.489,381.441 462.489,368.887 521.112,366.887 		"/>
		<polygon style="fill:none;stroke:#D6E7FC;stroke-miterlimit:10;" points="535.557,454.757 480.934,454.757 478.934,442.203 
			537.557,440.203 		"/>
		<polygon style="fill:#E8E8E8;" points="708.189,421.312 653.567,421.312 651.567,408.759 710.189,406.759 		"/>
		<polygon style="fill:none;stroke:#E8E8E8;stroke-miterlimit:10;" points="706.522,60.906 651.899,60.906 649.899,48.352 
			708.522,46.352 		"/>
		<g>
			<polygon style="fill:#A7C7FF;" points="330.904,120.09 341.376,212.661 462.415,211.491 462.415,114.202 			"/>
			<polygon style="fill:#FFFFFF;" points="402.058,128.678 410.891,192.961 453.387,191.979 453.387,125.243 			"/>
			<polygon style="fill:#FFFFFF;" points="342.027,133.994 393.716,132.031 395.678,143.481 342.027,146.261 			"/>
			<polygon style="fill:#FFFFFF;" points="342.027,150.678 384.392,148.388 383.738,150.678 342.027,152.968 			"/>
			<path style="fill:#FFFFFF;" d="M348.831,199.468l-3.926-41.995l51.13-3.741l0.071,0.384l7.448,40.215l-0.474,0.045
				L348.831,199.468z M345.855,158.278l3.762,40.24l52.907-4.965l-7.204-38.895L345.855,158.278z"/>
			<polygon style="fill:#C6C6C6;" points="605.799,377.251 605.799,457.674 609.07,457.674 608.416,377.251 			"/>
			<polyline style="fill:#C6C6C6;" points="639.506,374.552 646.959,457.674 643.233,457.674 636.626,375.779 			"/>
			<polygon style="fill:#C6C6C6;" points="655.116,368.663 667.3,457.674 670.818,457.674 658.028,367.191 			"/>
			<polyline style="fill:#18C6C6;" points="610.708,290.247 602.496,346.325 669.346,355.669 680.878,290.247 			"/>
			<path style="fill:#18C6C6;" d="M585.436,363.766l83.91-1.482C669.346,362.284,611.2,404.26,585.436,363.766z"/>
			<polyline style="fill:#C6C6C6;" points="382.77,370.257 409.436,458.671 415.717,458.671 386.106,369.399 			"/>
			<polygon style="fill:#C6C6C6;" points="372.445,373.325 374.673,457.674 371.013,457.674 369.191,374.306 			"/>
			<polygon style="fill:#C6C6C6;" points="333.777,370.257 322.822,458.671 326.649,458.671 336.982,372.344 			"/>
			<polygon style="fill:#ADB4BC;" points="236.047,281.843 245.371,458.671 249.46,458.671 238.828,281.843 			"/>
			<polygon style="fill:#C6C6C6;" points="271.133,279.212 283.156,458.671 288.472,458.671 275.059,278.269 			"/>
			<polygon style="fill:#C6C6C6;" points="202.799,279.212 196.129,458.671 199.464,458.671 206.196,279.212 			"/>
			<polygon style="fill:#F0F1F2;" points="177.898,113.089 182.684,276.58 294.36,278.269 299.922,107.818 			"/>
			<path style="fill:#E8E8E8;" d="M294.782,278.712l-0.428-0.007l-112.093-1.695l-0.013-0.417l-4.799-163.921l0.43-0.019
				l122.494-5.291L294.782,278.712z M183.107,276.151l110.833,1.676l5.532-169.554l-121.125,5.233L183.107,276.151z"/>
			<path style="fill:#E8E8E8;" d="M202.617,169.749c-0.941-1.413-8.588-3.345-8.588-3.345s-1.063-10.368-2.535-10.16
				c-1.472,0.208-1.227,13.63-1.227,13.63s-2.598,0.56-2.647,2.305c-0.04,1.45,2.174,3.512,2.927,4.17
				c-0.46-0.025-0.73-0.034-0.73-0.034c-3.779,9.091-6.922,17.544-9.352,24.481l1.029,35.16c0.364-0.01,0.741-0.048,1.144-0.141
				c0.515-0.099,1.019-0.267,1.509-0.51c0.044-0.02,0.085-0.031,0.13-0.051c12.949-5.945,17.194-57.286,17.194-57.286
				c-0.277-0.074-0.556-0.141-0.835-0.209C201.133,176.602,203.459,171.014,202.617,169.749z"/>
			<g>
				<path style="fill:#FFCAB3;" d="M185.456,172.884c0,0-3.227-2.64-3.178-4.385c0.049-1.745,2.647-2.305,2.647-2.305
					s-0.245-13.423,1.227-13.63c1.472-0.208,2.535,10.16,2.535,10.16s7.647,1.932,8.587,3.345c0.941,1.413-2.077,8.234-2.077,8.234
					L185.456,172.884z"/>
				<path style="fill:#18C6C6;" d="M147.812,169.87c0,0,5.546,1.814,10.186,6.839c4.64,5.025,31.262,46.361,22.183,54.02
					c-8.355,7.048-21.769-11.594-28.305-28.674"/>
				<path style="fill:#2E3D3F;" d="M167.545,440.147c0,0,2.085,7.48,20.119,13.215l-1.84,5.309h-36.803l1.95-17.178"/>
				<path style="fill:#2E3D3F;" d="M93.856,441.519c0,0-2.359,8.675-12.295,13.413l1.472,3.74h29.021l-2.327-17.178"/>
				<path style="fill:#444F72;" d="M89.908,261.132c0,0-2.049,56.579,2.829,181.247h17.861c0,0,9.216-101.443,15.826-163.166
					l1.158-0.374c0,0,10.804,75.411,23.038,163.54l18.52-1.33c0,0-2.869-119.283-8.204-179.917"/>
				<path style="fill:#B2CFF9;" d="M127.786,275.827c-0.103,0-0.194-0.072-0.215-0.177c-0.022-0.118,0.055-0.232,0.174-0.255
					l6.367-1.208l-1.533-14.636c-0.012-0.12,0.075-0.227,0.194-0.24c0.123-0.011,0.227,0.075,0.24,0.194l1.554,14.836
					c0.011,0.113-0.065,0.216-0.176,0.237l-6.564,1.246C127.813,275.826,127.8,275.827,127.786,275.827z"/>
				<path style="fill:#B2CFF9;" d="M127.398,272.503c-0.108,0-0.202-0.08-0.216-0.19l-1.636-12.758
					c-0.015-0.12,0.069-0.229,0.188-0.244c0.118-0.011,0.228,0.069,0.244,0.188l1.636,12.758c0.015,0.12-0.069,0.229-0.188,0.244
					C127.417,272.502,127.407,272.503,127.398,272.503z"/>
				<path style="fill:#B2CFF9;" d="M126.424,279.43c-0.101,0-0.191-0.071-0.214-0.173c-0.025-0.118,0.051-0.233,0.168-0.259
					l4.483-0.943c0.122-0.021,0.233,0.052,0.259,0.168c0.025,0.118-0.051,0.233-0.169,0.259l-4.483,0.943
					C126.453,279.429,126.438,279.43,126.424,279.43z"/>
				<path style="fill:#B2CFF9;" d="M97.758,277.044c-1.903,0-3.49-0.524-3.603-0.563c-0.114-0.038-0.175-0.162-0.136-0.276
					c0.038-0.114,0.163-0.177,0.276-0.136c0.046,0.014,4.65,1.536,7.485-0.653c1.703-1.315,2.445-3.705,2.207-7.105
					c-0.008-0.12,0.082-0.224,0.202-0.232c0.123-0.02,0.224,0.082,0.232,0.202c0.25,3.555-0.55,6.073-2.376,7.482
					C100.757,276.755,99.171,277.044,97.758,277.044z"/>
				<path style="fill:#B2CFF9;" d="M159.994,271.184c-4.138,0-5.747-2.75-5.765-2.781c-0.059-0.105-0.022-0.237,0.083-0.296
					c0.104-0.06,0.236-0.024,0.297,0.082c0.078,0.137,1.974,3.34,7.218,2.386c0.121-0.025,0.231,0.058,0.254,0.175
					c0.021,0.118-0.057,0.232-0.175,0.254C161.216,271.129,160.579,271.184,159.994,271.184z"/>
				<polygon style="fill:#B2CFF9;" points="92.016,442.379 111.481,442.379 112.053,437.031 91.444,436.615 				"/>
				<path style="fill:#00A8B5;" d="M149.838,173.873c-2.196-1.26-2.027-4.003-2.027-4.003l4.064,32.185
					c1.986,5.189,4.608,10.518,7.528,15.231c-0.179-2.043-0.359-4.115-0.539-6.216l0.875-3.678
					C159.74,203.716,152.983,179.631,149.838,173.873z"/>
				<path style="fill:#18C6C6;" d="M116.512,163.735c0,0-20.615,4.759-29.778,13.035c0.509,14.707,5.383,37.58,5.383,37.58
					s-1.718,28.424-3.143,47.667h72.892c0,0-2.377-23.309-4.743-50.946l0.874-3.678c0-3.931-5.701-33.726-8.755-36.623
					c-3.054-2.897-23.397-6.502-23.397-6.502"/>
				<path style="fill:#FFCAB3;" d="M114.323,165.39c0,0,0.504,10.345,16.439,17.794c0,0,1.845-6.215,2.273-17.384"/>
				<path style="fill:#FFCAB3;" d="M125.136,173.873h-2.859c-4.412,0-8.021-3.61-8.021-8.021v-11.063
					c0-4.411,3.609-8.021,8.021-8.021h2.859c4.412,0,8.021,3.609,8.021,8.021v11.063
					C133.157,170.264,129.548,173.873,125.136,173.873z"/>
				<path style="fill:#FFADA2;" d="M154.013,134.974c0,4.057-3.236,7.345-7.228,7.345c-3.992,0-7.228-3.288-7.228-7.345
					c0-4.057,3.236-7.345,7.228-7.345C150.777,127.629,154.013,130.918,154.013,134.974z"/>
				<path style="fill:#FFADA2;" d="M133.157,156.372c0-5.282-4.253-9.604-9.451-9.604l0,0c-5.198,0-9.451,4.322-9.451,9.604v1.947
					c4.115,4.235,10.377,6.494,17.36,6.494c0.514,0,1.022-0.017,1.528-0.041c0.008-0.167,0.013-0.335,0.013-0.503V156.372z"/>
				<path style="fill:#FFCAB3;" d="M128.882,98.558L128.882,98.558c-12.318,0-22.397,10.242-22.397,22.76v19.863
					c0,12.518,10.079,19.539,22.397,19.539l0,0c12.318,0,22.397-7.021,22.397-19.539v-19.863
					C151.279,108.8,141.2,98.558,128.882,98.558z"/>
				<path style="fill:#FFADA2;" d="M129.747,157.972c-12.318,0-22.397-7.021-22.397-19.539v-19.863c0-1.888,0.233-3.723,0.665-5.48
					c-0.984,2.556-1.53,5.33-1.53,8.229v19.863c0,12.518,10.079,19.539,22.397,19.539c10.667,0,19.649-5.268,21.867-14.807
					C147.576,153.711,139.341,157.972,129.747,157.972z"/>
				<path style="fill:#FFCAB3;" d="M110.746,134.236c0,4.057-3.236,7.346-7.228,7.346c-3.992,0-7.228-3.289-7.228-7.346
					c0-4.057,3.236-7.345,7.228-7.345C107.51,126.89,110.746,130.179,110.746,134.236z"/>
				<path style="fill:#FE9697;" d="M108.385,137.365c-0.05,0-0.101-0.021-0.136-0.063c-3.92-4.581-8.079-2.073-8.253-1.964
					c-0.086,0.053-0.196,0.026-0.249-0.061c-0.052-0.086-0.026-0.199,0.059-0.252c0.045-0.028,4.59-2.785,8.715,2.036
					c0.066,0.077,0.057,0.193-0.018,0.259C108.47,137.35,108.427,137.365,108.385,137.365z"/>
				<path style="fill:#FE9697;" d="M107.35,138.417c-0.007,0-0.015,0-0.023-0.001c-1.64-0.206-2.759-0.776-3.324-1.693
					c-0.678-1.1-0.296-2.277-0.279-2.327c0.033-0.096,0.136-0.146,0.229-0.115c0.094,0.033,0.145,0.137,0.113,0.233
					c-0.003,0.01-0.343,1.068,0.245,2.017c0.506,0.817,1.535,1.328,3.06,1.52c0.099,0.012,0.17,0.104,0.157,0.205
					C107.518,138.349,107.44,138.417,107.35,138.417z"/>
				<path style="fill:#243259;" d="M143.036,118.169c3.548,0.239,4.802,3.049,4.856,3.175c0.201,0.465-0.008,1.006-0.465,1.21
					c-0.455,0.203-0.986-0.006-1.188-0.466c-0.045-0.099-1-2.121-3.739-2.098c-0.499,0.003-0.908-0.404-0.911-0.911
					c-0.004-0.507,0.397-0.922,0.896-0.926C142.674,118.152,142.858,118.157,143.036,118.169z"/>
				<path style="fill:#FFADA2;" d="M124.267,138.519c0,1.805-1.983,3.268-4.429,3.268c-2.446,0-4.428-1.463-4.428-3.268
					c0-1.805,1.983-3.268,4.428-3.268C122.284,135.251,124.267,136.714,124.267,138.519z"/>
				<path style="fill:#00A8B5;" d="M139.597,185.261l-7.359-1.552c-0.098-0.02-0.161-0.118-0.14-0.217
					c0.02-0.1,0.119-0.164,0.214-0.142l7.025,1.481c0.234-0.991,1.301-6.308-0.987-12.549c-0.035-0.095,0.013-0.201,0.106-0.237
					c0.094-0.036,0.198,0.013,0.233,0.108c2.57,7.011,0.971,12.885,0.954,12.944L139.597,185.261z"/>
				<g>
					<path style="fill:#DDDDDD;" d="M86.803,176.71c-0.022,0.02-0.046,0.04-0.068,0.06c0.008,0.231,0.017,0.465,0.027,0.7
						C86.773,177.216,86.789,176.963,86.803,176.71z"/>
				</g>
				<path style="fill:#00A8B5;" d="M117.824,189.205l-0.084-0.12c-0.071-0.101-7.087-10.219-7.174-22.038
					c-0.001-0.102,0.079-0.185,0.179-0.185c0,0,0.001,0,0.001,0c0.099,0,0.18,0.081,0.181,0.182
					c0.081,11.006,6.236,20.532,7.024,21.706l10.859-4.7c0.093-0.04,0.198,0.004,0.237,0.097c0.039,0.094-0.003,0.201-0.095,0.241
					L117.824,189.205z"/>
				<path style="fill:#1F1D30;" d="M128.882,133.1c0,1.035-0.586,1.874-1.308,1.874c-0.722,0-1.308-0.839-1.308-1.874
					c0-1.035,0.586-1.874,1.308-1.874C128.296,131.226,128.882,132.065,128.882,133.1z"/>
				<path style="fill:#1F1D30;" d="M146.058,133.1c0,1.035-0.586,1.874-1.308,1.874c-0.722,0-1.308-0.839-1.308-1.874
					c0-1.035,0.586-1.874,1.308-1.874C145.472,131.226,146.058,132.065,146.058,133.1z"/>
				<path style="fill:#162851;" d="M147.916,111.672c0,0-0.452,2.899,3.362,9.647v12.918c0,0,4.305-23.251-0.97-23.188"/>
				<path style="fill:#243259;" d="M110.746,134.236c8.84-8.512,2.207-19.447,2.207-19.447s7.829-0.748,10.171-6.607
					c0,0,17.309,10.347,28.718,2.369c11.409-7.979-4.171-4.488-4.171-4.488s5.664-9.599,3.077-11.469s-5.099,3.966-5.099,3.966
					s-0.064-8.703-7.425-10.573s-9.343,8.477-9.343,8.477s-2.312-5.111-4.581-5.111c-2.269,0,1.965,4.862,1.965,4.862
					s-24.532-1.122-19.781,9.724c0,0-2.978-3.865-4.082-3.117c-1.104,0.748,4.082,4.488,4.082,4.488s-5.643,1.496-6.764,4.488
					c-1.121,2.992,5.568,15.321,5.568,15.321S110.625,128.126,110.746,134.236"/>
				<path style="fill:#E0616A;" d="M134.736,149.648c-0.057,0-0.115-0.009-0.171-0.028c-0.116-0.039-0.489-0.222-0.47-0.931
					c0.034-1.202,0.882-2.108,0.918-2.146c0.123-0.129,0.328-0.136,0.461-0.012c0.13,0.124,0.136,0.331,0.013,0.462
					c-0.005,0.005-0.385,0.414-0.597,1.004c0.025,0.019,0.048,0.042,0.069,0.068c0.449,0.597,0.409,1.088,0.221,1.347
					C135.07,149.564,134.906,149.648,134.736,149.648z M134.803,149.016h0.008H134.803z"/>
				<g>
					<path style="fill:#162851;" d="M107.18,127.872c-2.979-9.552-7.745-16.999,1.386-18.818c0,0-3.137-6.15,1.77-9.392
						c4.907-3.241,21.019-0.997,21.019-0.997s-1.492-10.453,5.044-10.901c-5.868,0.103-7.518,8.698-7.518,8.698
						s-2.312-5.111-4.581-5.111c-2.269,0,1.965,4.862,1.965,4.862s-24.532-1.122-19.781,9.724c0,0-2.978-3.865-4.082-3.117
						c-1.104,0.748,4.082,4.488,4.082,4.488s-5.643,1.496-6.764,4.488c-1.121,2.992,5.569,15.321,5.569,15.321
						S106.147,127.286,107.18,127.872z"/>
				</g>
				<ellipse style="fill:#00A8B5;" cx="130.907" cy="189.506" rx="1.188" ry="1.496"/>
				<path style="fill:#00A8B5;" d="M133.282,205.962c0,0.826-0.532,1.496-1.188,1.496s-1.188-0.67-1.188-1.496
					s0.532-1.496,1.188-1.496S133.282,205.136,133.282,205.962z"/>
				<path style="fill:#00A8B5;" d="M134.47,224.567c0,0.826-0.532,1.496-1.188,1.496s-1.188-0.67-1.188-1.496
					c0-0.826,0.532-1.496,1.188-1.496S134.47,223.741,134.47,224.567z"/>
				<path style="fill:#00A8B5;" d="M134.786,243.172c0,0.826-0.532,1.496-1.188,1.496c-0.656,0-1.188-0.67-1.188-1.496
					c0-0.826,0.532-1.496,1.188-1.496C134.254,241.675,134.786,242.345,134.786,243.172z"/>
				<path style="fill:#00A8B5;" d="M157.997,207.393c0,0-23.698,0.564-51.832,7.712c0,0,27.164-3.911,50.958-4.033L157.997,207.393z
					"/>
				<path style="fill:#243259;" d="M131.143,122.359c0.076,0.028,0.147,0.057,0.216,0.086c0.459,0.197,0.672,0.735,0.475,1.202
					c-0.196,0.466-0.731,0.683-1.184,0.491c-0.132-0.059-3.252-1.316-5.474,1.353c-0.323,0.389-0.894,0.44-1.275,0.113
					c-0.381-0.326-0.427-0.905-0.104-1.294C126.166,121.466,129.514,121.755,131.143,122.359z"/>
				<polygon style="fill:#B1EFE0;" points="161.014,262.017 89.869,262.017 89.768,265.058 161.014,262.894 				"/>
				<path style="fill:#B2CFF9;" d="M95.189,431.19c-0.116,0-0.213-0.091-0.218-0.208l-0.075-1.741
					c-0.005-0.12,0.088-0.222,0.208-0.227c0.003,0,0.007,0,0.009,0c0.117,0,0.213,0.092,0.218,0.208l0.075,1.741
					c0.005,0.12-0.089,0.222-0.209,0.227C95.195,431.19,95.192,431.19,95.189,431.19z M94.931,425.095
					c-0.117,0-0.213-0.092-0.218-0.208l-0.072-1.741c-0.005-0.121,0.089-0.222,0.208-0.227c0.003,0,0.007,0,0.009,0
					c0.117,0,0.213,0.092,0.218,0.208l0.072,1.741c0.005,0.12-0.088,0.222-0.208,0.227
					C94.937,425.095,94.933,425.095,94.931,425.095z M94.682,419.001c-0.117,0-0.213-0.092-0.218-0.209l-0.069-1.742
					c-0.004-0.12,0.089-0.221,0.209-0.226c0.118,0.021,0.221,0.089,0.226,0.209l0.069,1.742c0.004,0.12-0.089,0.221-0.209,0.226
					C94.688,419.001,94.685,419.001,94.682,419.001z M94.447,412.905c-0.117,0-0.214-0.092-0.218-0.209l-0.065-1.743
					c-0.004-0.12,0.089-0.221,0.21-0.225c0.112,0.002,0.221,0.09,0.226,0.21l0.065,1.741c0.004,0.121-0.089,0.221-0.209,0.226
					C94.452,412.905,94.449,412.905,94.447,412.905z M94.22,406.809c-0.117,0-0.214-0.093-0.218-0.21l-0.062-1.741
					c-0.004-0.12,0.09-0.221,0.21-0.226c0.003,0,0.005,0,0.008,0c0.117,0,0.214,0.093,0.218,0.21l0.062,1.741
					c0.004,0.12-0.089,0.221-0.21,0.225C94.225,406.809,94.223,406.809,94.22,406.809z M94.008,400.712
					c-0.117,0-0.214-0.093-0.218-0.21l-0.06-1.742c-0.004-0.121,0.09-0.221,0.21-0.225c0.137-0.012,0.221,0.09,0.226,0.21
					l0.06,1.742c0.004,0.12-0.09,0.221-0.21,0.226C94.013,400.712,94.01,400.712,94.008,400.712z M93.805,394.616
					c-0.117,0-0.214-0.093-0.218-0.211l-0.056-1.742c-0.003-0.12,0.09-0.22,0.211-0.225c0.135,0.005,0.22,0.09,0.225,0.211
					l0.056,1.742c0.003,0.12-0.09,0.22-0.211,0.225C93.809,394.616,93.808,394.616,93.805,394.616z M93.614,388.519
					c-0.117,0-0.214-0.093-0.218-0.211l-0.051-1.691c-0.003-0.12,0.09-0.247,0.21-0.25c0.116-0.002,0.219,0.065,0.224,0.185
					l0.053,1.743c0.003,0.12-0.09,0.22-0.211,0.225C93.619,388.519,93.617,388.519,93.614,388.519z M93.436,382.421
					c-0.117,0-0.215-0.094-0.218-0.212l-0.049-1.742c-0.003-0.12,0.092-0.22,0.212-0.224c0.111-0.014,0.22,0.092,0.224,0.212
					l0.049,1.742c0.003,0.12-0.092,0.22-0.212,0.224C93.44,382.421,93.437,382.421,93.436,382.421z M93.269,376.324
					c-0.117,0-0.214-0.094-0.218-0.212l-0.045-1.744c-0.002-0.12,0.092-0.22,0.213-0.223c0.002,0,0.003,0,0.005,0
					c0.118,0,0.214,0.094,0.218,0.213l0.045,1.742c0.003,0.121-0.092,0.22-0.212,0.224
					C93.272,376.324,93.271,376.324,93.269,376.324z M93.116,370.225c-0.118,0-0.214-0.094-0.218-0.213l-0.042-1.742
					c-0.003-0.12,0.093-0.22,0.213-0.223c0.129,0.019,0.22,0.093,0.223,0.213l0.042,1.742c0.002,0.12-0.092,0.22-0.213,0.223
					C93.119,370.225,93.117,370.225,93.116,370.225z M92.975,364.125c-0.118,0-0.215-0.094-0.218-0.213l-0.038-1.742
					c-0.003-0.121,0.093-0.22,0.213-0.223c0.146-0.002,0.22,0.093,0.223,0.213l0.038,1.742c0.003,0.121-0.093,0.22-0.213,0.223
					C92.979,364.125,92.977,364.125,92.975,364.125z M92.846,358.028c-0.118,0-0.215-0.094-0.218-0.214l-0.034-1.743
					c-0.003-0.12,0.094-0.22,0.214-0.222c0.002,0,0.003,0,0.004,0c0.118,0,0.215,0.094,0.218,0.214l0.034,1.743
					c0.003,0.12-0.093,0.22-0.214,0.222C92.849,358.028,92.848,358.028,92.846,358.028z M92.732,351.928
					c-0.118,0-0.216-0.095-0.218-0.214l-0.031-1.742c-0.002-0.121,0.094-0.22,0.214-0.222c0.002,0,0.003,0,0.004,0
					c0.118,0,0.215,0.095,0.218,0.214l0.031,1.744c0.002,0.12-0.094,0.219-0.215,0.221
					C92.734,351.928,92.733,351.928,92.732,351.928z M92.63,345.829c-0.119,0-0.216-0.095-0.218-0.214l-0.026-1.743
					c-0.002-0.121,0.094-0.219,0.214-0.221c0.118-0.003,0.22,0.094,0.221,0.214l0.026,1.743c0.002,0.12-0.095,0.219-0.215,0.221
					C92.632,345.829,92.631,345.829,92.63,345.829z M92.543,339.729c-0.119,0-0.216-0.095-0.218-0.215l-0.022-1.743
					c-0.002-0.12,0.095-0.219,0.215-0.221c0.001,0,0.002,0,0.003,0c0.119,0,0.216,0.096,0.218,0.215l0.022,1.743
					c0.002,0.12-0.095,0.219-0.215,0.22C92.545,339.729,92.544,339.729,92.543,339.729z M92.471,333.629
					c-0.119,0-0.217-0.096-0.218-0.215l-0.018-1.743c-0.001-0.121,0.095-0.22,0.215-0.22c0.001,0,0.002,0,0.003,0
					c0.119,0,0.217,0.096,0.218,0.215l0.018,1.743c0.001,0.121-0.095,0.22-0.215,0.22C92.472,333.629,92.471,333.629,92.471,333.629
					z M92.414,327.529c-0.119,0-0.217-0.096-0.218-0.216l-0.014-1.743c-0.001-0.122,0.075-0.21,0.218-0.22
					c0.12,0,0.217,0.096,0.218,0.216l0.014,1.743C92.632,327.43,92.536,327.526,92.414,327.529z M92.373,321.429
					c-0.12,0-0.217-0.097-0.218-0.217l-0.008-1.743c-0.001-0.12,0.096-0.218,0.217-0.219h0.001c0.12,0,0.217,0.097,0.218,0.217
					l0.009,1.743C92.591,321.33,92.494,321.428,92.373,321.429L92.373,321.429z M92.348,315.328c-0.12,0-0.218-0.097-0.218-0.217
					l-0.003-1.721c0-0.12,0.097-0.229,0.218-0.23l0,0c0.12,0,0.218,0.086,0.218,0.207l0.003,1.742
					C92.566,315.23,92.469,315.328,92.348,315.328C92.348,315.328,92.348,315.328,92.348,315.328z M92.343,309.228
					c-0.12,0-0.218-0.098-0.218-0.218l0.002-1.743c0-0.121,0.098-0.218,0.218-0.218l0,0c0.121,0,0.218,0.098,0.218,0.218
					l-0.002,1.743C92.561,309.13,92.463,309.228,92.343,309.228z M92.357,303.128L92.357,303.128
					c-0.121-0.001-0.219-0.099-0.218-0.219l0.008-1.743c0.001-0.12,0.098-0.217,0.218-0.217h0.001
					c0.121,0.001,0.218,0.099,0.217,0.219l-0.008,1.743C92.574,303.031,92.477,303.128,92.357,303.128z M92.393,297.027
					c-0.001,0-0.001,0-0.002,0c-0.12-0.001-0.217-0.099-0.216-0.22l0.014-1.743c0.001-0.12,0.099-0.216,0.218-0.216
					c0.001,0,0.002,0,0.002,0c0.121,0.001,0.217,0.1,0.216,0.22l-0.014,1.743C92.61,296.931,92.513,297.027,92.393,297.027z
					 M92.454,290.927c-0.001,0-0.002,0-0.003,0c-0.121-0.002-0.217-0.1-0.215-0.22l0.023-1.744c0.002-0.119,0.099-0.214,0.218-0.214
					c0.001,0,0.002,0,0.003,0c0.12,0.002,0.216,0.1,0.214,0.221l-0.023,1.742C92.671,290.831,92.574,290.927,92.454,290.927z
					 M92.551,284.828c-0.002,0-0.003,0-0.004,0c-0.12-0.003-0.216-0.102-0.214-0.222c0.023-1.157,0.038-1.745,0.038-1.745
					c0.003-0.118,0.1-0.212,0.218-0.212c0.002,0,0.003,0,0.006,0c0.12,0.003,0.215,0.103,0.212,0.224c0,0-0.015,0.587-0.038,1.742
					C92.766,284.734,92.669,284.828,92.551,284.828z"/>
				<path style="fill:#B2CFF9;" d="M152.248,434.96c-0.108,0-0.202-0.08-0.216-0.189l-0.231-1.728
					c-0.016-0.119,0.068-0.229,0.187-0.245c0.128-0.011,0.228,0.067,0.245,0.187l0.231,1.727c0.015,0.119-0.068,0.229-0.187,0.245
					C152.267,434.959,152.257,434.96,152.248,434.96z M151.435,428.907c-0.107,0-0.201-0.079-0.216-0.188l-0.233-1.728
					c-0.016-0.119,0.068-0.229,0.187-0.245c0.12-0.012,0.228,0.067,0.245,0.187l0.233,1.727c0.016,0.12-0.067,0.23-0.186,0.246
					C151.455,428.907,151.445,428.907,151.435,428.907z M150.618,422.859c-0.107,0-0.201-0.079-0.216-0.188l-0.235-1.728
					c-0.016-0.119,0.067-0.229,0.187-0.245c0.113-0.004,0.229,0.068,0.245,0.187l0.235,1.727c0.016,0.12-0.067,0.23-0.186,0.246
					C150.638,422.858,150.628,422.859,150.618,422.859z M149.796,416.811c-0.107,0-0.201-0.079-0.216-0.188l-0.236-1.728
					c-0.016-0.119,0.067-0.229,0.187-0.245c0.12-0.009,0.228,0.068,0.245,0.187l0.236,1.727c0.016,0.119-0.067,0.229-0.186,0.246
					C149.816,416.81,149.805,416.811,149.796,416.811z M148.97,410.753c-0.107,0-0.201-0.079-0.216-0.189l-0.237-1.731
					c-0.016-0.119,0.067-0.229,0.186-0.246c0.132-0.009,0.229,0.068,0.246,0.186l0.237,1.733c0.016,0.119-0.068,0.229-0.187,0.245
					C148.989,410.752,148.979,410.753,148.97,410.753z M148.142,404.698c-0.107,0-0.201-0.079-0.216-0.188l-0.237-1.728
					c-0.016-0.119,0.067-0.229,0.186-0.246c0.123-0.009,0.229,0.068,0.246,0.186l0.237,1.728c0.016,0.119-0.067,0.229-0.186,0.246
					C148.161,404.698,148.151,404.698,148.142,404.698z M147.31,398.654c-0.107,0-0.201-0.079-0.216-0.188l-0.238-1.724
					c-0.016-0.119,0.067-0.229,0.186-0.246c0.128-0.009,0.23,0.069,0.246,0.186l0.238,1.724c0.016,0.119-0.067,0.229-0.186,0.246
					C147.33,398.653,147.32,398.654,147.31,398.654z M146.479,392.621c-0.107,0-0.201-0.079-0.216-0.188l-0.238-1.722
					c-0.016-0.119,0.067-0.229,0.186-0.246c0.133-0.01,0.229,0.067,0.246,0.186l0.237,1.722c0.016,0.119-0.067,0.229-0.186,0.246
					C146.499,392.62,146.488,392.621,146.479,392.621z M145.645,386.581c-0.107,0-0.201-0.079-0.216-0.188l-0.239-1.727
					c-0.016-0.119,0.067-0.229,0.186-0.246c0.131-0.006,0.229,0.068,0.246,0.186l0.239,1.727c0.016,0.119-0.067,0.229-0.186,0.246
					C145.665,386.58,145.654,386.581,145.645,386.581z M144.806,380.535c-0.107,0-0.201-0.079-0.216-0.188l-0.24-1.727
					c-0.016-0.119,0.067-0.229,0.186-0.246c0.134-0.013,0.229,0.068,0.246,0.186l0.24,1.727c0.016,0.119-0.067,0.229-0.186,0.246
					C144.826,380.534,144.815,380.535,144.806,380.535z M143.965,374.49c-0.107,0-0.201-0.079-0.216-0.188l-0.24-1.727
					c-0.016-0.119,0.067-0.229,0.186-0.246c0.127-0.008,0.23,0.068,0.246,0.186l0.24,1.727c0.016,0.119-0.067,0.229-0.186,0.246
					C143.985,374.489,143.975,374.49,143.965,374.49z M143.123,368.445c-0.107,0-0.2-0.078-0.215-0.187l-0.243-1.728
					c-0.016-0.119,0.067-0.229,0.186-0.246c0.133-0.005,0.229,0.068,0.246,0.186l0.241,1.726c0.017,0.119-0.065,0.23-0.185,0.246
					C143.144,368.444,143.134,368.445,143.123,368.445z M142.278,362.4c-0.107,0-0.201-0.078-0.216-0.187l-0.242-1.728
					c-0.016-0.119,0.067-0.229,0.186-0.246c0.131-0.011,0.229,0.068,0.246,0.186l0.242,1.726c0.016,0.119-0.066,0.23-0.185,0.247
					C142.297,362.399,142.288,362.4,142.278,362.4z M141.431,356.356c-0.107,0-0.201-0.079-0.216-0.188l-0.242-1.726
					c-0.017-0.119,0.065-0.23,0.185-0.246c0.119-0.023,0.229,0.065,0.246,0.185l0.243,1.728c0.016,0.119-0.067,0.229-0.186,0.246
					C141.451,356.355,141.44,356.356,141.431,356.356z M140.582,350.311c-0.107,0-0.201-0.079-0.216-0.188l-0.243-1.726
					c-0.016-0.119,0.066-0.23,0.186-0.246c0.117-0.021,0.229,0.066,0.246,0.185l0.243,1.728c0.016,0.119-0.067,0.229-0.186,0.246
					C140.601,350.31,140.591,350.311,140.582,350.311z M139.731,344.267c-0.107,0-0.2-0.078-0.215-0.187l-0.243-1.727
					c-0.017-0.119,0.066-0.23,0.185-0.246c0.117-0.021,0.229,0.065,0.246,0.185l0.243,1.727c0.017,0.119-0.066,0.23-0.185,0.246
					C139.752,344.266,139.742,344.267,139.731,344.267z M138.877,338.221c-0.107,0-0.201-0.079-0.216-0.188l-0.243-1.725
					c-0.017-0.119,0.066-0.23,0.185-0.246c0.119-0.024,0.229,0.065,0.246,0.185l0.244,1.727c0.016,0.119-0.067,0.229-0.186,0.246
					C138.897,338.22,138.886,338.221,138.877,338.221z M138.023,332.177c-0.107,0-0.2-0.078-0.215-0.187l-0.245-1.726
					c-0.017-0.119,0.066-0.23,0.185-0.246c0.113-0.022,0.229,0.066,0.246,0.185l0.245,1.726c0.017,0.119-0.066,0.229-0.185,0.246
					C138.044,332.176,138.034,332.177,138.023,332.177z M137.167,326.134c-0.107,0-0.2-0.078-0.215-0.187l-0.245-1.727
					c-0.017-0.119,0.066-0.23,0.185-0.246c0.118-0.021,0.229,0.065,0.246,0.185l0.245,1.727c0.017,0.119-0.065,0.23-0.185,0.246
					C137.188,326.133,137.178,326.134,137.167,326.134z M136.308,320.089c-0.107,0-0.2-0.078-0.215-0.187l-0.245-1.727
					c-0.017-0.119,0.066-0.23,0.185-0.246c0.117-0.02,0.229,0.065,0.246,0.185l0.245,1.727c0.017,0.119-0.065,0.23-0.185,0.246
					C136.328,320.088,136.318,320.089,136.308,320.089z M135.448,314.044c-0.107,0-0.2-0.078-0.215-0.187l-0.246-1.727
					c-0.017-0.119,0.066-0.23,0.185-0.246c0.116-0.022,0.229,0.065,0.246,0.185l0.246,1.727c0.017,0.119-0.066,0.229-0.185,0.246
					C135.469,314.043,135.459,314.044,135.448,314.044z M134.586,307.998c-0.107,0-0.2-0.078-0.215-0.187l-0.247-1.727
					c-0.017-0.119,0.066-0.23,0.185-0.246c0.117-0.021,0.229,0.065,0.246,0.185l0.247,1.727c0.017,0.119-0.066,0.229-0.185,0.246
					C134.607,307.997,134.597,307.998,134.586,307.998z M133.723,301.954c-0.107,0-0.2-0.078-0.215-0.187l-0.248-1.727
					c-0.017-0.119,0.066-0.229,0.185-0.246c0.111-0.023,0.229,0.065,0.246,0.185l0.248,1.728c0.017,0.119-0.066,0.229-0.185,0.246
					C133.743,301.953,133.733,301.954,133.723,301.954z M132.857,295.905c-0.106,0-0.2-0.078-0.215-0.186l-0.249-1.728
					c-0.017-0.119,0.066-0.229,0.185-0.246c0.116-0.022,0.229,0.066,0.246,0.185l0.248,1.727c0.018,0.119-0.065,0.23-0.184,0.247
					C132.878,295.904,132.867,295.905,132.857,295.905z M131.987,289.854c-0.107,0-0.2-0.078-0.215-0.187l-0.249-1.728
					c-0.018-0.119,0.066-0.23,0.184-0.247c0.125-0.023,0.231,0.066,0.247,0.184l0.249,1.729c0.018,0.118-0.066,0.229-0.185,0.246
					C132.008,289.853,131.998,289.854,131.987,289.854z M131.116,283.8c-0.106,0-0.2-0.078-0.215-0.186l-0.252-1.739
					c-0.018-0.119,0.065-0.23,0.184-0.247c0.127-0.021,0.231,0.066,0.247,0.184l0.252,1.739c0.018,0.119-0.065,0.23-0.184,0.247
					C131.136,283.799,131.126,283.8,131.116,283.8z"/>
				<path style="fill:#202C2D;" d="M93.562,442.379h16.285l0.525,3.873c0,0-9.51-3.519-17.245-2.838L93.562,442.379z"/>
				<path style="fill:#A5B7B7;" d="M99.275,449.996c-0.025,0-0.05-0.002-0.075-0.007c-7.678-1.331-10.236-0.819-10.26-0.814
					c-0.236,0.053-0.467-0.1-0.517-0.333c-0.051-0.235,0.096-0.465,0.33-0.518c0.104-0.023,2.691-0.564,10.596,0.808
					c0.237,0.041,0.397,0.266,0.355,0.503C99.667,449.846,99.483,449.996,99.275,449.996z"/>
				<path style="fill:#A5B7B7;" d="M101.069,447.731c-0.025,0-0.05-0.002-0.075-0.007c-7.676-1.33-10.235-0.82-10.26-0.814
					c-0.237,0.053-0.466-0.1-0.517-0.333c-0.051-0.234,0.095-0.466,0.329-0.518c0.106-0.023,2.691-0.564,10.597,0.807
					c0.237,0.041,0.397,0.266,0.355,0.503C101.461,447.582,101.277,447.731,101.069,447.731z"/>
				<path style="fill:#A5B7B7;" d="M102.863,445.467c-0.025,0-0.05-0.002-0.075-0.007c-7.676-1.331-10.236-0.82-10.26-0.814
					c-0.236,0.054-0.466-0.1-0.517-0.333c-0.051-0.234,0.095-0.466,0.329-0.518c0.107-0.023,2.691-0.564,10.597,0.807
					c0.237,0.041,0.397,0.266,0.355,0.503C103.254,445.317,103.071,445.467,102.863,445.467z"/>
				<polygon style="fill:#202C2D;" points="150.891,442.36 168.036,441.145 168.442,441.856 150.548,445.22 				"/>
				<polygon style="fill:#B2CFF9;" points="149.838,442.57 169.876,441.129 170.285,435.062 149.021,438.816 				"/>
				<path style="fill:#A5B7B7;" d="M161.165,444.905c-0.184,0-0.355-0.117-0.414-0.302c-0.074-0.229,0.052-0.474,0.281-0.548
					c0.051-0.017,5.204-1.677,8.292-2.42c0.236-0.054,0.469,0.089,0.526,0.322c0.056,0.234-0.088,0.47-0.322,0.526
					c-3.056,0.735-8.177,2.385-8.229,2.401C161.255,444.898,161.21,444.905,161.165,444.905z"/>
				<path style="fill:#A5B7B7;" d="M164.151,448.354c-0.141,0-0.281-0.069-0.364-0.197c-0.132-0.202-0.076-0.471,0.125-0.603
					c0.049-0.032,4.953-3.246,6.355-4.306c0.192-0.143,0.465-0.107,0.611,0.085c0.145,0.192,0.106,0.465-0.085,0.611
					c-1.426,1.077-6.2,4.206-6.403,4.338C164.316,448.331,164.233,448.354,164.151,448.354z"/>
				<path style="fill:#A5B7B7;" d="M168.158,449.352c-0.11,0-0.22-0.041-0.304-0.123c-0.173-0.168-0.176-0.444-0.008-0.616
					l3.803-3.907c0.168-0.173,0.445-0.176,0.616-0.009c0.173,0.168,0.176,0.444,0.008,0.616l-3.803,3.907
					C168.385,449.307,168.271,449.352,168.158,449.352z"/>
				<path style="fill:#18C6C6;" d="M91.497,173.306c0,0-7.905,4.398-11.013,7.556c-3.108,3.158-17.011,29.588-17.338,36.237
					c-0.327,6.649,4.905,28.284,29.196,53.87l9.57-5.062c0,0-18.825-40.995-19.39-46.314l9.82-18.118
					C92.342,201.474,96.785,186.362,91.497,173.306z"/>
				<polygon style="fill:#00A8B5;" points="90.336,205.175 93.243,200.477 91.083,209.178 				"/>
				<path style="fill:#00A8B5;" d="M82.522,219.592c0,0-2.201-1.662-8.253-1.081L82.522,219.592z"/>
				<polygon style="fill:#00A8B5;" points="90.479,240.257 100.139,262.017 102.812,262.017 90.57,238.871 				"/>
				<path style="fill:#FFCAB3;" d="M101.465,266.143c0,0,5.559,1.53,7.195,3.275c1.636,1.745-4.743,1.08-4.743,1.08
					s0.45,7.688-8.833,5.776c0,0-1.083-2.287-2.361-5.507L101.465,266.143z"/>
				<polygon style="fill:#FFADA2;" points="101.465,266.143 93.215,271.989 92.722,270.768 				"/>
				<path style="fill:#18C6C6;" d="M169.262,215.104c0,0,5.521-19.157,15.212-42.47c0,0,6.134,0.19,11.654,1.653
					c0,0-4.245,51.341-17.194,57.286C168.281,236.464,169.262,215.104,169.262,215.104z"/>
				<polygon style="fill:#00A8B5;" points="173.604,201.516 170.083,212.375 171.843,198.23 				"/>
				<path style="fill:#FFADA2;" d="M187.273,170.44c-0.478,0-0.83-0.048-0.866-0.052c-0.119-0.017-0.202-0.127-0.186-0.246
					c0.017-0.118,0.123-0.193,0.246-0.186c0.021,0.004,2.105,0.281,3.019-0.557c0.303-0.277,0.438-0.643,0.414-1.117
					c-0.019-0.382-0.176-0.699-0.479-0.968c-1.256-1.114-4.449-0.905-4.481-0.905c-0.107,0.025-0.225-0.082-0.232-0.202
					c-0.009-0.12,0.082-0.225,0.202-0.232c0.141-0.008,3.408-0.222,4.8,1.012c0.391,0.346,0.601,0.774,0.626,1.272
					c0.03,0.603-0.157,1.095-0.557,1.461C189.125,170.32,188.036,170.44,187.273,170.44z"/>
				<path style="fill:#E4F8F9;" d="M127.989,138.468c-4.457,0-8.083-4.396-8.083-9.8c0-5.404,3.626-9.801,8.083-9.801
					c4.457,0,8.083,4.397,8.083,9.801C136.072,134.072,132.446,138.468,127.989,138.468z M127.989,119.739
					c-3.977,0-7.211,4.006-7.211,8.93c0,4.923,3.235,8.929,7.211,8.929c3.977,0,7.211-4.006,7.211-8.929
					C135.201,123.744,131.966,119.739,127.989,119.739z"/>
				<path style="fill:#E4F8F9;" d="M146.058,137.672c-4.457,0-8.083-4.396-8.083-9.8s3.626-9.8,8.083-9.8
					c4.457,0,8.083,4.396,8.083,9.8S150.514,137.672,146.058,137.672z M146.058,118.943c-3.977,0-7.211,4.006-7.211,8.929
					c0,4.923,3.235,8.929,7.211,8.929s7.211-4.006,7.211-8.929C153.269,122.949,150.035,118.943,146.058,118.943z"/>
				<path style="fill:#FE9697;" d="M135.29,142.32c-0.12,0-0.229-0.081-0.262-0.204c-0.039-0.147,0.047-0.298,0.192-0.338
					c1.304-0.355,4.818-1.564,5.417-2.874c0.107-0.233,0.109-0.454,0.007-0.674c-3.038-6.586-3.784-13.263-3.791-13.329
					c-0.016-0.151,0.091-0.287,0.24-0.304c0.153-0.016,0.283,0.093,0.299,0.244c0.007,0.066,0.745,6.655,3.743,13.155
					c0.172,0.372,0.17,0.756-0.007,1.141c-0.829,1.811-5.567,3.119-5.768,3.174C135.337,142.316,135.313,142.32,135.29,142.32z"/>
				<path style="fill:#E4F8F9;" d="M135.333,132.332l-0.357-0.795c2.722-1.222,4.344-1.551,4.819-0.974
					c0.389,0.471-0.049,1.094-0.193,1.299l-0.713-0.5c0.067-0.095,0.111-0.169,0.139-0.224c-0.003,0-0.005,0-0.008,0
					C138.456,131.138,136.858,131.648,135.333,132.332z"/>
				<rect x="151.279" y="128.447" style="fill:#E4F8F9;" width="2.382" height="0.871"/>
				
					<rect x="110.491" y="131.25" transform="matrix(0.9811 -0.1935 0.1935 0.9811 -23.2964 24.8479)" style="fill:#E4F8F9;" width="10.131" height="0.871"/>
			</g>
			<g>
				<g>
					<path style="fill:#5E1B23;" d="M653.317,194.805c0,0-9.741-8.186-22.634-5.896s-16.328,14.231-16.328,14.231
						s-10.468-1.145-15.539,6.379c-5.071,7.524,3.435,19.109,3.435,19.109s-9.16,8.534-2.29,26.854
						c6.87,18.32,44.491,23.063,67.228,11.45c22.736-11.613,15.703-33.879,7.034-41.557
						C674.222,225.375,690.644,186.471,653.317,194.805z"/>
					<g>
						<path style="fill:#561620;" d="M600.166,224.505c0,0-0.489-0.638-1.16-1.7c0.297,0.691,0.607,1.342,0.915,1.943
							C600.075,224.587,600.166,224.505,600.166,224.505z"/>
						<path style="fill:#561620;" d="M674.222,225.375c0,0,9.221-21.847-1.865-29.29c7.469,9.418-0.589,29.065-0.589,29.065
							c8.669,7.336,16.072,24.858-6.664,35.954c-21.824,10.651-57.344,6.895-66.238-8.903c0.308,1.057,0.67,2.15,1.094,3.282
							c6.87,18.32,44.491,23.064,67.228,11.45C689.925,255.318,682.891,233.052,674.222,225.375z"/>
					</g>
					<path style="fill:#F06064;" d="M617.407,262.524c0,0-4.852,0.4-10.74,3.017c-5.889,2.617-28.298,45.744-24.945,53.596
						s17.864,1.547,28.87-32.186C616.182,269.821,617.407,262.524,617.407,262.524z"/>
					<path style="fill:#E54551;" d="M617.407,262.524C617.407,262.524,617.988,262.44,617.407,262.524
						c-6.073,19.026-14.798,23.053-13.534,28.488c0.317,1.365,1.982,5.57,2.682,6.801c1.859-2.179,2.529-7.704,4.038-10.862
						C618.362,270.694,617.407,262.524,617.407,262.524z"/>
					<path style="fill:#243259;" d="M585.246,439.276c0,0-1.942,7.48-18.735,13.215l1.714,5.309h34.272l-4.335-19.254"/>
					<polygon style="fill:#17243F;" points="598.341,439.344 584.789,440.273 584.411,440.985 599.391,444.009 					"/>
					<path style="fill:#A5B7B7;" d="M591.186,444.034c-0.048,0-0.095-0.008-0.143-0.024c-0.048-0.017-4.814-1.666-7.658-2.401
						c-0.233-0.06-0.373-0.298-0.313-0.531c0.06-0.233,0.296-0.374,0.531-0.313c2.878,0.744,7.678,2.405,7.726,2.421
						c0.227,0.079,0.347,0.327,0.269,0.555C591.535,443.921,591.367,444.034,591.186,444.034z"/>
					<path style="fill:#A5B7B7;" d="M588.406,447.483c-0.087,0-0.174-0.026-0.251-0.079c-0.188-0.133-4.635-3.263-5.963-4.34
						c-0.187-0.151-0.216-0.426-0.065-0.613c0.153-0.188,0.427-0.215,0.614-0.065c1.305,1.06,5.87,4.272,5.916,4.304
						c0.197,0.139,0.243,0.41,0.106,0.608C588.678,447.418,588.543,447.483,588.406,447.483z"/>
					<path style="fill:#A5B7B7;" d="M584.674,448.48c-0.118,0-0.237-0.048-0.323-0.143l-3.541-3.907
						c-0.162-0.179-0.148-0.454,0.03-0.615c0.179-0.161,0.454-0.148,0.615,0.03l3.541,3.907c0.162,0.179,0.148,0.454-0.03,0.615
						C584.884,448.443,584.779,448.48,584.674,448.48z"/>
					<path style="fill:#243259;" d="M623.45,440.521c0,0-2.293,8.675-11.954,13.413l1.431,3.74h28.215l-2.263-17.178"/>
					<path style="fill:#17243F;" d="M623.164,441.381h15.832l0.51,3.873c0,0-9.246-3.519-16.766-2.838L623.164,441.381z"/>
					<path style="fill:#A5B7B7;" d="M628.719,448.999c-0.025,0-0.051-0.003-0.077-0.007c-7.457-1.33-9.943-0.821-9.966-0.814
						c-0.237,0.054-0.467-0.096-0.519-0.33c-0.053-0.234,0.093-0.466,0.327-0.52c0.104-0.024,2.623-0.563,10.311,0.807
						c0.237,0.043,0.395,0.269,0.352,0.505C629.11,448.85,628.926,448.999,628.719,448.999z"/>
					<path style="fill:#A5B7B7;" d="M630.463,446.734c-0.026,0-0.051-0.003-0.077-0.007c-7.453-1.329-9.942-0.819-9.966-0.814
						c-0.237,0.052-0.467-0.096-0.519-0.33c-0.053-0.234,0.093-0.466,0.326-0.52c0.105-0.023,2.62-0.566,10.312,0.806
						c0.237,0.043,0.395,0.269,0.352,0.506C630.854,446.586,630.67,446.734,630.463,446.734z"/>
					<path style="fill:#A5B7B7;" d="M632.207,444.47c-0.026,0-0.051-0.003-0.077-0.007c-7.454-1.328-9.943-0.82-9.966-0.814
						c-0.238,0.052-0.466-0.097-0.519-0.33c-0.053-0.234,0.093-0.466,0.327-0.52c0.103-0.025,2.619-0.565,10.311,0.806
						c0.237,0.043,0.395,0.268,0.352,0.506C632.597,444.322,632.414,444.47,632.207,444.47z"/>
					<path style="fill:#FECB00;" d="M607.362,337.18c0,0-25.885-8.092-35.928,5.327c-8.889,11.877-1.696,47.211,13.171,98.007
						l14.261-1.227c0,0-2.702-54.993-3.683-74.867l20.483-0.711l7.521,77.676h15.771c0,0,5.33-56.355,9.255-77.947
						c0,0,21.591-3.435,16.193-25.026"/>
					<polygon style="fill:#FCAE00;" points="595.183,364.42 595.183,357.427 597.18,364.42 					"/>
					<path style="fill:#FCAE00;" d="M615.666,363.709c0,0-3.193-19.899,12.101-22.189c0,0-15.965,0.492-13.748,22.246
						L615.666,363.709z"/>
					<polygon style="fill:#FCAE00;" points="648.214,363.439 649.523,355.669 650.164,362.981 					"/>
					<path style="fill:#F9F2D7;" d="M596.182,436.392c-0.116,0-0.212-0.09-0.218-0.207l-0.088-1.74
						c-0.006-0.12,0.087-0.223,0.207-0.229c0.004,0,0.008,0,0.011,0c0.116,0,0.212,0.09,0.218,0.207l0.088,1.74
						c0.006,0.12-0.087,0.223-0.207,0.229C596.189,436.392,596.185,436.392,596.182,436.392z M595.874,430.3
						c-0.116,0-0.212-0.09-0.218-0.207l-0.089-1.74c-0.006-0.12,0.087-0.222,0.207-0.229c0.128,0,0.223,0.087,0.229,0.207
						l0.089,1.74c0.006,0.12-0.087,0.222-0.207,0.229C595.881,430.3,595.877,430.3,595.874,430.3z M595.566,424.207
						c-0.116,0-0.212-0.09-0.218-0.207l-0.089-1.74c-0.006-0.12,0.087-0.222,0.207-0.229c0.109-0.014,0.223,0.087,0.229,0.207
						l0.089,1.74c0.006,0.12-0.087,0.222-0.207,0.229C595.573,424.207,595.569,424.207,595.566,424.207z M595.258,418.115
						c-0.116,0-0.212-0.09-0.218-0.207l-0.089-1.74c-0.006-0.12,0.087-0.222,0.207-0.229c0.119,0.003,0.222,0.087,0.229,0.207
						l0.089,1.74c0.006,0.12-0.087,0.222-0.207,0.229C595.265,418.115,595.261,418.115,595.258,418.115z M594.949,412.024
						c-0.116,0-0.212-0.09-0.218-0.207l-0.089-1.741c-0.006-0.12,0.087-0.222,0.207-0.229c0.129-0.011,0.223,0.087,0.229,0.207
						l0.089,1.741c0.006,0.12-0.087,0.222-0.207,0.229C594.957,412.024,594.953,412.024,594.949,412.024z M594.641,405.931
						c-0.116,0-0.212-0.09-0.218-0.207l-0.088-1.741c-0.006-0.12,0.087-0.223,0.207-0.229c0.14,0.005,0.223,0.087,0.229,0.207
						l0.088,1.741c0.006,0.12-0.087,0.223-0.207,0.229C594.647,405.931,594.644,405.931,594.641,405.931z M594.332,399.839
						c-0.116,0-0.212-0.09-0.218-0.207l-0.088-1.74c-0.006-0.12,0.087-0.223,0.207-0.229c0.004,0,0.008,0,0.011,0
						c0.116,0,0.212,0.09,0.218,0.207l0.088,1.74c0.006,0.12-0.087,0.223-0.207,0.229
						C594.34,399.839,594.336,399.839,594.332,399.839z M594.024,393.747c-0.116,0-0.212-0.09-0.218-0.207l-0.088-1.74
						c-0.006-0.12,0.087-0.223,0.207-0.229c0.13,0.007,0.223,0.087,0.229,0.207l0.088,1.74c0.006,0.12-0.087,0.223-0.207,0.229
						C594.032,393.747,594.028,393.747,594.024,393.747z M593.716,387.655c-0.116,0-0.212-0.09-0.218-0.207l-0.088-1.74
						c-0.006-0.12,0.087-0.223,0.207-0.229c0.111-0.007,0.223,0.087,0.229,0.207l0.088,1.74c0.006,0.12-0.087,0.223-0.207,0.229
						C593.723,387.655,593.72,387.655,593.716,387.655z M593.408,381.562c-0.116,0-0.212-0.09-0.218-0.207l-0.088-1.74
						c-0.006-0.12,0.087-0.223,0.207-0.229c0.121,0.009,0.222,0.087,0.229,0.207l0.088,1.74c0.006,0.12-0.087,0.223-0.207,0.229
						C593.415,381.562,593.412,381.562,593.408,381.562z M593.1,375.471c-0.116,0-0.212-0.09-0.218-0.207l-0.088-1.741
						c-0.006-0.12,0.087-0.223,0.207-0.229c0.004,0,0.008,0,0.011,0c0.116,0,0.212,0.09,0.218,0.207l0.088,1.741
						c0.006,0.12-0.087,0.223-0.207,0.229C593.107,375.471,593.104,375.471,593.1,375.471z M592.792,369.379
						c-0.116,0-0.212-0.09-0.218-0.207l-0.089-1.741c-0.006-0.12,0.087-0.222,0.207-0.229c0.112,0.012,0.223,0.086,0.229,0.207
						l0.089,1.741c0.006,0.12-0.087,0.222-0.207,0.229C592.8,369.379,592.796,369.379,592.792,369.379z M592.484,363.286
						c-0.116,0-0.212-0.09-0.218-0.207l-0.089-1.741c-0.006-0.12,0.087-0.222,0.207-0.229c0.123-0.002,0.222,0.087,0.229,0.207
						l0.089,1.741c0.006,0.12-0.087,0.222-0.207,0.229C592.492,363.286,592.487,363.286,592.484,363.286z M592.176,357.194
						c-0.116,0-0.212-0.09-0.218-0.207l-0.066-1.307c-0.006-0.12,0.087-0.223,0.207-0.229c0.111-0.003,0.223,0.087,0.229,0.207
						l0.066,1.307c0.006,0.12-0.087,0.223-0.207,0.229C592.184,357.194,592.18,357.194,592.176,357.194z"/>
					<path style="fill:#F9F2D7;" d="M611.083,357.645h-1.049c-0.12,0-0.218-0.098-0.218-0.218s0.098-0.218,0.218-0.218h1.049
						c0.12,0,0.218,0.098,0.218,0.218S611.203,357.645,611.083,357.645z M605.677,357.645h-1.743c-0.12,0-0.218-0.098-0.218-0.218
						s0.098-0.218,0.218-0.218h1.743c0.12,0,0.218,0.098,0.218,0.218S605.797,357.645,605.677,357.645z M599.577,357.645h-1.743
						c-0.12,0-0.218-0.098-0.218-0.218s0.098-0.218,0.218-0.218h1.743c0.12,0,0.218,0.098,0.218,0.218
						S599.697,357.645,599.577,357.645z"/>
					<path style="fill:#F9F2D7;" d="M636.626,437.263c-0.008,0-0.017-0.001-0.026-0.002c-0.119-0.014-0.204-0.122-0.19-0.242
						l0.208-1.73c0.014-0.119,0.108-0.2,0.242-0.19c0.119,0.014,0.204,0.123,0.19,0.243l-0.208,1.73
						C636.829,437.182,636.735,437.263,636.626,437.263z M637.357,431.208c-0.008,0-0.017-0.001-0.026-0.002
						c-0.119-0.014-0.204-0.122-0.19-0.242l0.208-1.731c0.014-0.119,0.117-0.203,0.242-0.19c0.119,0.014,0.204,0.123,0.19,0.242
						l-0.208,1.731C637.56,431.127,637.466,431.208,637.357,431.208z M638.087,425.151c-0.008,0-0.017-0.001-0.026-0.002
						c-0.119-0.015-0.204-0.123-0.19-0.243l0.209-1.73c0.015-0.12,0.114-0.207,0.242-0.19c0.119,0.014,0.204,0.123,0.19,0.243
						l-0.209,1.73C638.29,425.07,638.196,425.151,638.087,425.151z M638.818,419.095c-0.008,0-0.017-0.001-0.026-0.002
						c-0.119-0.014-0.204-0.122-0.19-0.242l0.208-1.73c0.015-0.119,0.112-0.199,0.243-0.19c0.119,0.014,0.204,0.122,0.19,0.242
						l-0.208,1.73C639.021,419.015,638.927,419.095,638.818,419.095z M639.548,413.039c-0.008,0-0.017-0.001-0.026-0.002
						c-0.119-0.014-0.204-0.122-0.19-0.242l0.209-1.73c0.015-0.119,0.11-0.203,0.243-0.19c0.119,0.015,0.204,0.123,0.19,0.243
						l-0.209,1.73C639.751,412.958,639.657,413.039,639.548,413.039z M640.279,406.983c-0.008,0-0.017-0.001-0.026-0.002
						c-0.119-0.014-0.204-0.122-0.19-0.242l0.208-1.73c0.014-0.12,0.119-0.207,0.242-0.19c0.119,0.014,0.204,0.122,0.19,0.242
						l-0.208,1.73C640.482,406.902,640.388,406.983,640.279,406.983z M641.01,400.928c-0.008,0-0.017-0.001-0.026-0.002
						c-0.119-0.014-0.204-0.123-0.19-0.243l0.208-1.731c0.014-0.119,0.117-0.198,0.242-0.19c0.119,0.014,0.204,0.123,0.19,0.243
						l-0.208,1.731C641.214,400.847,641.119,400.928,641.01,400.928z M641.74,394.871c-0.008,0-0.017-0.001-0.026-0.002
						c-0.119-0.014-0.204-0.122-0.19-0.242l0.209-1.73c0.015-0.119,0.113-0.202,0.242-0.19c0.119,0.014,0.204,0.122,0.19,0.242
						l-0.209,1.73C641.943,394.79,641.849,394.871,641.74,394.871z M642.471,388.815c-0.008,0-0.017-0.001-0.026-0.002
						c-0.119-0.014-0.204-0.123-0.19-0.243l0.208-1.73c0.015-0.12,0.111-0.207,0.243-0.19c0.119,0.014,0.204,0.122,0.19,0.242
						l-0.208,1.73C642.674,388.734,642.58,388.815,642.471,388.815z M643.202,382.759c-0.009,0-0.017-0.001-0.026-0.002
						c-0.119-0.014-0.204-0.122-0.19-0.242l0.209-1.73c0.015-0.119,0.108-0.198,0.243-0.19c0.119,0.014,0.204,0.122,0.19,0.242
						l-0.209,1.73C643.404,382.678,643.311,382.759,643.202,382.759z M643.933,376.703c-0.009,0-0.017-0.001-0.026-0.002
						c-0.119-0.014-0.204-0.123-0.19-0.243l0.208-1.73c0.014-0.119,0.118-0.202,0.242-0.19c0.119,0.014,0.204,0.122,0.19,0.243
						l-0.208,1.73C644.136,376.622,644.042,376.703,643.933,376.703z M644.664,370.647c-0.009,0-0.017-0.001-0.026-0.002
						c-0.119-0.014-0.204-0.122-0.19-0.243l0.208-1.731c0.014-0.119,0.115-0.205,0.242-0.19c0.119,0.014,0.204,0.122,0.19,0.242
						l-0.208,1.731C644.867,370.567,644.773,370.647,644.664,370.647z M645.394,364.591c-0.009,0-0.017-0.001-0.026-0.002
						c-0.119-0.014-0.204-0.123-0.19-0.243l0.209-1.73c0.015-0.119,0.112-0.198,0.242-0.19c0.119,0.014,0.204,0.122,0.19,0.242
						l-0.209,1.73C645.596,364.51,645.503,364.591,645.394,364.591z M646.125,358.535c-0.008,0-0.017-0.001-0.026-0.002
						c-0.119-0.014-0.204-0.122-0.19-0.242l0.208-1.73c0.014-0.119,0.111-0.202,0.242-0.19c0.119,0.014,0.204,0.123,0.19,0.243
						l-0.208,1.73C646.328,358.454,646.234,358.535,646.125,358.535z M646.855,352.48c-0.008,0-0.017-0.001-0.026-0.002
						c-0.119-0.014-0.204-0.122-0.19-0.242l0.132-1.091c0.007-0.058,0.037-0.111,0.083-0.146c0.048-0.035,0.109-0.047,0.163-0.043
						c0.004,0.001,0.231,0.031,0.629,0.059c0.12,0.009,0.21,0.112,0.202,0.232c-0.008,0.12-0.118,0.228-0.232,0.202
						c-0.181-0.013-0.328-0.026-0.437-0.037l-0.106,0.877C647.057,352.399,646.964,352.48,646.855,352.48z M651.976,351.279
						c-0.107,0-0.2-0.078-0.215-0.187c-0.017-0.119,0.066-0.229,0.185-0.246c0.579-0.082,1.148-0.191,1.693-0.319
						c0.123-0.03,0.235,0.045,0.262,0.162c0.028,0.117-0.044,0.235-0.162,0.262c-0.557,0.132-1.14,0.242-1.732,0.326
						C651.997,351.278,651.987,351.279,651.976,351.279z"/>
					<path style="fill:#F9F2D7;" d="M660.514,349.805c-1.879,0-3.438-0.47-4.652-1.403c-2.037-1.568-2.333-3.856-2.344-3.952
						c-0.014-0.12,0.071-0.228,0.19-0.243c0.128-0.016,0.227,0.07,0.243,0.19c0.003,0.022,0.291,2.211,2.184,3.663
						c1.493,1.146,3.566,1.541,6.157,1.177c0.113-0.011,0.23,0.066,0.247,0.186c0.016,0.119-0.066,0.23-0.186,0.247
						C661.709,349.76,661.096,349.805,660.514,349.805z"/>
					<path style="fill:#F9F2D7;" d="M616.411,346.543c-0.009,0-0.019-0.001-0.028-0.002c-0.119-0.015-0.203-0.125-0.188-0.244
						c0.518-4.009,1.676-10.013,1.688-10.073c0.022-0.118,0.131-0.202,0.255-0.172c0.117,0.022,0.195,0.137,0.172,0.255
						c-0.011,0.06-1.166,6.05-1.682,10.046C616.613,346.463,616.52,346.543,616.411,346.543z"/>
					<path style="fill:#F9F2D7;" d="M621.532,341.738c-0.01,0-0.021-0.001-0.032-0.003c-0.119-0.018-0.201-0.129-0.183-0.248
						l0.797-5.254c0.017-0.118,0.119-0.206,0.248-0.183c0.119,0.018,0.201,0.129,0.183,0.248l-0.797,5.254
						C621.731,341.66,621.638,341.738,621.532,341.738z"/>
					<path style="fill:#F06064;" d="M640.693,259.608c0,0,27.458,3.971,31.763,8.104c4.305,4.133-9.094,46.676-9.094,46.676
						l2.528,26.546c0,0-40.053-4.194-58.528-3.754c0,0,0.36-15.524,4.19-35.785c0,0-5.541-4.939-6.807-10.384
						c-1.266-5.445,6.585-9.362,12.663-28.488c0,0,8.231-2.283,15.195-2.03"/>
					<path style="fill:#FFCAB3;" d="M629.531,286.706c-11.195-2.121-7.362-16.415-3.477-25.861c2.117-0.265,4.394-0.43,6.55-0.351
						l8.09-0.886c0,0,7.723,1.117,15.62,2.783C653.647,268.789,643.866,289.422,629.531,286.706z"/>
					<path style="fill:#FFCAB3;" d="M639.353,271.683L639.353,271.683c5.34,0,9.71-4.369,9.71-9.709v-7.984
						c0-5.34-4.369-9.709-9.71-9.709l0,0c-5.34,0-9.709,4.369-9.709,9.71v7.984C629.643,267.314,634.013,271.683,639.353,271.683z"
						/>
					<path style="fill:#FFADA2;" d="M609.436,228.355c-0.667,4.047,2.073,7.868,6.12,8.535c4.047,0.667,7.868-2.073,8.535-6.12
						c0.667-4.047-2.073-7.868-6.12-8.535C613.924,221.569,610.103,224.309,609.436,228.355z"/>
					<path style="fill:#FFB297;" d="M629.643,253.99c0-5.34,4.369-9.71,9.709-9.71l0,0c5.34,0,9.71,4.369,9.71,9.71v1.969
						c-4.228,4.282-10.661,6.565-17.836,6.565c-0.528,0-1.05-0.017-1.57-0.041c-0.009-0.169-0.014-0.338-0.014-0.509V253.99z"/>
					<path style="fill:#FFCAB3;" d="M640.899,196.228L640.899,196.228c12.487,2.058,21.02,13.958,18.962,26.445l-3.265,19.814
						c-2.058,12.487-13.429,17.806-25.916,15.748l0,0c-12.487-2.058-21.549-10.745-19.491-23.232l3.265-19.814
						C616.511,202.703,628.412,194.17,640.899,196.228z"/>
					<path style="fill:#FFB297;" d="M630.254,255.35c12.487,2.058,23.858-3.261,25.916-15.748l3.266-19.814
						c0.31-1.883,0.376-3.752,0.227-5.577c0.577,2.714,0.675,5.572,0.198,8.464l-3.265,19.814
						c-2.058,12.487-13.429,17.806-25.916,15.748c-10.813-1.782-19.052-8.537-19.732-18.424
						C612.882,248.122,620.529,253.747,630.254,255.35z"/>
					<path style="fill:#FFCAB3;" d="M653.417,234.847c-0.667,4.047,2.073,7.868,6.12,8.535c4.047,0.667,7.868-2.073,8.535-6.12
						c0.667-4.047-2.073-7.868-6.12-8.535C657.905,228.061,654.084,230.8,653.417,234.847z"/>
					<path style="fill:#FE9697;" d="M626.595,239.066c0.094,0.016,0.19-0.033,0.231-0.124c0.049-0.108,0.001-0.236-0.107-0.285
						c-0.977-0.442-3.579-1.829-3.882-2.918c-0.054-0.194-0.028-0.364,0.08-0.521c3.22-4.69,4.654-9.745,4.668-9.795
						c0.032-0.115-0.035-0.233-0.149-0.266c-0.117-0.032-0.233,0.035-0.266,0.15c-0.014,0.05-1.43,5.039-4.608,9.667
						c-0.182,0.265-0.229,0.561-0.14,0.881c0.42,1.504,3.969,3.126,4.12,3.195C626.559,239.057,626.577,239.063,626.595,239.066z"/>
					<path style="fill:#FE9697;" d="M655.296,238.363c0.051,0.008,0.105-0.005,0.149-0.04c4.727-3.914,8.53-0.718,8.689-0.58
						c0.078,0.067,0.195,0.059,0.262-0.019c0.067-0.077,0.059-0.195-0.018-0.262c-0.041-0.036-4.196-3.544-9.169,0.575
						c-0.079,0.065-0.09,0.183-0.025,0.261C655.213,238.334,655.254,238.356,655.296,238.363z"/>
					<path style="fill:#FE9697;" d="M656.172,239.585c0.008,0.001,0.015,0.002,0.023,0.002c1.697,0.069,2.924-0.313,3.648-1.133
						c0.868-0.984,0.674-2.222,0.665-2.274c-0.017-0.101-0.113-0.169-0.214-0.153c-0.101,0.017-0.17,0.112-0.153,0.213
						c0.002,0.011,0.172,1.123-0.58,1.971c-0.647,0.73-1.775,1.068-3.352,1.005c-0.102-0.004-0.189,0.075-0.193,0.178
						C656.014,239.489,656.081,239.57,656.172,239.585z"/>
					<path style="fill:#511A1E;" d="M635.681,218.73c-0.081-0.016-0.16-0.029-0.235-0.04c-0.508-0.073-0.978,0.28-1.051,0.788
						c-0.073,0.507,0.284,0.976,0.784,1.051c0.147,0.019,3.555,0.583,4.106,4.063c0.08,0.507,0.556,0.852,1.063,0.772
						c0.507-0.08,0.852-0.556,0.772-1.063C640.531,220.59,637.432,219.07,635.681,218.73z"/>
					<path style="fill:#511A1E;" d="M621.539,214.846c-3.653-0.014-5.137,2.729-5.202,2.852c-0.239,0.454-0.064,1.016,0.39,1.254
						c0.452,0.237,1.01,0.065,1.251-0.385c0.053-0.096,1.176-2.067,3.98-1.846c0.512,0.039,0.959-0.342,0.999-0.853
						c0.04-0.511-0.342-0.958-0.853-0.999C621.91,214.855,621.722,214.847,621.539,214.846z"/>
					<path style="fill:#FF9E99;" d="M642.352,237.581c-0.297,1.8,1.472,3.591,3.952,4c2.479,0.409,4.73-0.72,5.026-2.52
						c0.297-1.8-1.473-3.591-3.952-4S642.648,235.781,642.352,237.581z"/>
					<path style="fill:#E54551;" d="M643.307,312.305c0.514,0,1.024-0.041,1.532-0.124c3.33-0.543,6.538-2.943,9.278-6.939
						c2.058-3.001,3.148-5.883,3.159-5.912c0.047-0.127-0.017-0.269-0.144-0.316c-0.126-0.049-0.269,0.017-0.316,0.144
						c-0.042,0.113-4.312,11.277-12.057,12.539c-4.561,0.742-9.445-2.05-14.519-8.302c-0.086-0.105-0.241-0.121-0.346-0.036
						c-0.105,0.086-0.122,0.24-0.036,0.346C634.496,309.418,639.013,312.305,643.307,312.305z"/>
					<path style="fill:#5E1B23;" d="M611.845,214.215c1.577,1.488,3.363,2.239,5.316,2.239c0.215,0,0.432-0.009,0.651-0.027
						c4.161-0.346,8.041-3.849,10.107-6.066c0.874,0.989,4.307,4.497,9.982,5.728c3.853,0.836,6.662,0.462,8.684-0.354
						c-0.248,0.498-0.501,1.05-0.736,1.639c-1.263,3.174-1.418,5.974-0.448,8.099c1.067,2.339,3.459,3.906,7.121,4.678
						c1.415,1.078,2.486,1.699,2.486,1.699c2.815-3.065,4.446-3.096,4.446-3.096s7.295-29.47-16.944-33.465
						c-24.239-3.995-27.76,18.098-27.76,18.098c5.391,0.736,11.122-2.251,12.585-3.079c-2.086,2.171-5.753,5.356-9.562,5.672
						c-2.075,0.174-3.967-0.531-5.62-2.091c-0.09-0.085-0.233-0.081-0.318,0.009C611.751,213.987,611.755,214.13,611.845,214.215z
						 M645.688,219.271c-0.29,4.193,3.207,7.93,6,10.22c-2.991-0.795-4.963-2.201-5.878-4.204
						C644.954,223.41,645.137,221.239,645.688,219.271z"/>
					<path style="fill:#1F1D30;" d="M634.995,230.235c0,0.749,0.465,1.356,1.039,1.356s1.039-0.607,1.039-1.356
						c0-0.749-0.465-1.356-1.039-1.356S634.995,229.486,634.995,230.235z"/>
					<ellipse style="fill:#1F1D30;" cx="619.675" cy="228.936" rx="1.039" ry="1.356"/>
					<path style="fill:#E54551;" d="M607.495,334.125c-0.107,1.965-0.133,3.056-0.133,3.056c18.475-0.441,58.528,3.754,58.528,3.754
						l-1.75-18.376C652.059,336.381,614.899,334.623,607.495,334.125z"/>
					<path style="fill:#FE9697;" d="M627.404,241.713c-0.558,0-0.942-0.082-0.984-0.091c-0.234-0.053-0.381-0.285-0.329-0.519
						c0.051-0.234,0.286-0.381,0.518-0.332c0.094,0.02,2.299,0.479,3.744-1.193c0.158-0.182,0.432-0.202,0.615-0.044
						c0.182,0.157,0.202,0.432,0.044,0.614C629.875,241.463,628.376,241.713,627.404,241.713z"/>
					<path style="fill:#5E1B23;" d="M652.534,198.381l0.25-1.453c0.014-0.083,0.137-0.772,0.416-1.653
						c0.17-3.659-3.814-8.235-3.861-8.288c-0.08-0.09-0.071-0.228,0.02-0.307c0.089-0.08,0.227-0.072,0.307,0.02
						c0.177,0.201,3.453,3.962,3.923,7.512c0.692-1.65,1.884-3.406,3.846-3.229c0.12,0.011,0.208,0.117,0.198,0.237
						c-0.011,0.119-0.106,0.211-0.237,0.197c-2.061-0.197-3.207,2.242-3.761,3.957c-0.037,0.588-0.174,1.157-0.441,1.689
						L652.534,198.381z"/>
					<path style="fill:#FFFFFF;" d="M622.869,270.672c-1.624,7.41-1.011,14.581,6.662,16.034c8.412,1.594,15.252-4.853,20.01-11.745
						L622.869,270.672z"/>
					<path style="fill:#F06064;" d="M668.171,265.52c0,0,20.118,3.266,30.259,48.084c5.362,23.694-16.684,11.34-31.13-25.738"/>
				</g>
				<rect x="265.458" y="317.415" style="fill:#A7C7FF;" width="458.325" height="8.375"/>
				<path style="fill:#F06064;" d="M567.549,317.415c0,0,0.188-5.72,5.422-9.483c5.234-3.762,19.792-3.271,19.792-3.271
					l1.808,12.754H567.549z"/>
				<path style="fill:#F06064;" d="M671.891,317.415c0,0,0.859-9.564,12.391-12.509c11.532-2.944,14.703,12.509,14.703,12.509"/>
				<path style="fill:#E54551;" d="M677.904,307.789c0,0,5.298-3.414,12.839,0.879C690.742,308.669,682.418,302.656,677.904,307.789
					z"/>
				<path style="fill:#E54551;" d="M585.648,305.234c0,0,2.262-0.405,5.071,2.208C590.719,307.442,588.429,304.579,585.648,305.234z
					"/>
				<path style="fill:#FFCAB3;" d="M559.597,317.415c0,0,2.164-4.412,8.705-6.865c6.541-2.454,9.049-1.174,10.476,6.865"/>
				<path style="fill:#FFCAB3;" d="M668.088,317.415c0,0,1.881-6.865,10.06-7.847c8.179-0.981,12.186,7.851,12.186,7.851
					L668.088,317.415z"/>
				<polygon style="fill:#A7C7FF;" points="478.934,212.813 488.919,299.705 596.182,302.491 589.335,208.943 				"/>
				<path style="fill:#E1EAF9;" d="M589.805,297.477l-0.481-0.013l-95.115-2.47l-8.915-77.589l0.471-0.017l97.926-3.432
					L589.805,297.477z M494.989,294.142l93.877,2.437l-5.982-81.723l-96.616,3.386L494.989,294.142z"/>
				<polygon style="fill:#8CB9F9;" points="589.335,208.943 593.581,208.943 599.586,301.553 596.182,302.491 				"/>
				<polygon style="fill:#8CB9F9;" points="528.807,251.501 526.845,317.415 552.689,317.415 542.22,249.374 				"/>
				<polygon style="fill:#75AEF2;" points="542.22,249.374 539.767,249.763 548.436,317.415 552.689,317.415 				"/>
				<polygon style="fill:#8CB9F9;" points="615.827,317.42 616.764,310.974 680.822,313.456 682.482,317.42 				"/>
				<path style="fill:#8CB9F9;" d="M563.321,317.42c0,0,3.271-5.587,10.469-6.392c7.197-0.805,8.097,6.392,8.097,6.392H563.321z"/>
				<path style="fill:#FFCAB3;" d="M570.477,311.204c0,0-2.413,4.989-0.491,5.602c1.922,0.613,3.803-5.779,3.803-5.779
					L570.477,311.204z"/>
				<polygon style="fill:#E1EAF9;" points="618.771,310.974 679.211,313.393 678.638,312.184 619.099,308.096 				"/>
			</g>
			<polygon style="fill:#8CB9F9;" points="178.879,272.285 180.106,283.525 297.386,281.843 298.858,272.285 			"/>
			<g>
				<path style="fill:#A7C7FF;" d="M286.273,150.732h-92.574l-2.547-24.647l0.459-0.023l95.927-4.931L286.273,150.732z
					 M194.484,149.861h90.953l1.188-27.811l-94.512,4.859L194.484,149.861z"/>
			</g>
			<polygon style="fill:#A7C7FF;" points="221.571,155.203 285.609,155.203 284.75,163.431 222.675,161.092 			"/>
			<polygon style="fill:#A7C7FF;" points="279.645,259.963 196.128,259.963 196.128,259.092 278.814,259.092 282.721,178.627 
				283.59,178.669 			"/>
			<polygon style="fill:#18C6C6;" points="201.616,210.081 203.578,257.026 210.776,257.026 209.794,208.936 			"/>
			<polygon style="fill:#FECB00;" points="217.646,257.026 232.858,257.026 231.222,193.044 215.519,193.044 			"/>
			<polygon style="fill:#18C6C6;" points="237.274,232.981 238.869,256.372 248.233,256.372 248.233,232.259 			"/>
			<polygon style="fill:#FECB00;" points="252.599,201.065 254.449,256.372 272.115,256.372 273.096,194.869 			"/>
			<polyline style="fill:#18C6C6;" points="305.156,280.09 313.109,354.351 393.648,349.453 391.831,293.012 			"/>
			<path style="fill:#18C6C6;" d="M322.822,363.439l79.168,0.981C401.99,364.42,348.666,395.59,322.822,363.439z"/>
			<path style="fill:#FECB00;" d="M376.807,247.034c0,0,1.736,0.386,6.822,4.688c8.744,7.395,20.324,46.688,20.324,46.688
				l35.986,8.506l2.126,10.5h-50.233l-7.671-20.387"/>
			<g>
				<path style="fill:#FECB00;" d="M345.6,240.941c0,0-20.615,4.759-29.778,13.035c0.509,14.707,5.383,37.581,5.383,37.581
					s-1.718,28.424-3.143,47.666h72.892c0,0-2.377-23.309-4.743-50.946l0.874-3.678c0-3.931-5.701-33.726-8.755-36.623
					c-3.054-2.897-23.397-6.502-23.397-6.502"/>
				<path style="fill:#FFCAB3;" d="M343.41,242.597c0,0-0.79,21.629,16.439,17.794c0,0,7.756-1.298,2.273-17.384"/>
				<path style="fill:#FFCAB3;" d="M354.224,251.08h-2.859c-4.412,0-8.021-3.609-8.021-8.021v-11.063
					c0-4.411,3.609-8.021,8.021-8.021h2.859c4.412,0,8.021,3.61,8.021,8.021v11.063C362.245,247.471,358.635,251.08,354.224,251.08z
					"/>
				<path style="fill:#FFADA2;" d="M383.101,212.181c0,4.057-3.236,7.345-7.228,7.345c-3.992,0-7.228-3.288-7.228-7.345
					c0-4.057,3.236-7.345,7.228-7.345C379.865,204.836,383.101,208.124,383.101,212.181z"/>
				<path style="fill:#FFADA2;" d="M362.245,233.579c0-5.282-4.253-9.604-9.451-9.604l0,0c-5.198,0-9.451,4.322-9.451,9.604v1.947
					c4.115,4.236,10.377,6.494,17.36,6.494c0.514,0,1.022-0.017,1.528-0.041c0.009-0.167,0.013-0.335,0.013-0.503V233.579z"/>
				<path style="fill:#FFCAB3;" d="M357.969,175.765L357.969,175.765c-12.318,0-22.397,10.242-22.397,22.76v19.863
					c0,12.518,10.079,19.539,22.397,19.539l0,0c12.318,0,22.397-7.021,22.397-19.539v-19.863
					C380.366,186.007,370.287,175.765,357.969,175.765z"/>
				<path style="fill:#FFADA2;" d="M358.835,235.178c-12.318,0-22.397-7.021-22.397-19.539v-19.863c0-1.888,0.233-3.723,0.665-5.48
					c-0.984,2.556-1.53,5.33-1.53,8.229v19.863c0,12.518,10.079,19.539,22.397,19.539c10.667,0,19.649-5.268,21.867-14.807
					C376.663,230.918,368.429,235.178,358.835,235.178z"/>
				<path style="fill:#FFCAB3;" d="M339.834,211.442c0,4.057-3.236,7.346-7.228,7.346c-3.992,0-7.228-3.289-7.228-7.346
					c0-4.057,3.236-7.345,7.228-7.345C336.598,204.097,339.834,207.386,339.834,211.442z"/>
				<path style="fill:#FE9697;" d="M337.473,214.572c-0.051,0-0.101-0.021-0.136-0.063c-3.92-4.581-8.079-2.073-8.253-1.964
					c-0.086,0.053-0.196,0.026-0.249-0.061c-0.052-0.086-0.026-0.199,0.06-0.252c0.045-0.028,4.59-2.785,8.715,2.036
					c0.066,0.077,0.057,0.193-0.018,0.259C337.557,214.557,337.515,214.572,337.473,214.572z"/>
				<path style="fill:#FE9697;" d="M336.438,215.623c-0.007,0-0.015,0-0.023-0.001c-1.64-0.206-2.759-0.776-3.324-1.693
					c-0.678-1.1-0.296-2.277-0.279-2.327c0.033-0.096,0.136-0.146,0.229-0.115c0.094,0.033,0.145,0.137,0.113,0.233
					c-0.003,0.01-0.343,1.068,0.245,2.017c0.506,0.817,1.535,1.328,3.06,1.52c0.099,0.012,0.17,0.104,0.157,0.205
					C336.606,215.555,336.528,215.623,336.438,215.623z"/>
				<path style="fill:#F06064;" d="M372.123,195.376c3.548,0.239,4.802,3.05,4.856,3.175c0.201,0.465-0.008,1.006-0.465,1.21
					c-0.455,0.203-0.986-0.006-1.188-0.466c-0.045-0.099-1-2.121-3.739-2.098c-0.499,0.003-0.908-0.404-0.911-0.911
					c-0.004-0.507,0.397-0.922,0.896-0.926C371.762,195.358,371.945,195.364,372.123,195.376z"/>
				<ellipse style="fill:#FFADA2;" cx="348.926" cy="215.726" rx="4.428" ry="3.268"/>
				<g>
					<path style="fill:#DDDDDD;" d="M315.891,253.916c-0.023,0.02-0.046,0.04-0.069,0.06c0.008,0.231,0.017,0.465,0.027,0.7
						C315.861,254.423,315.877,254.17,315.891,253.916z"/>
				</g>
				<path style="fill:#1F1D30;" d="M357.969,210.306c0,1.035-0.586,1.874-1.308,1.874c-0.722,0-1.308-0.839-1.308-1.874
					c0-1.035,0.586-1.874,1.308-1.874C357.384,208.432,357.969,209.271,357.969,210.306z"/>
				<path style="fill:#1F1D30;" d="M375.145,210.306c0,1.035-0.586,1.874-1.308,1.874c-0.722,0-1.308-0.839-1.308-1.874
					c0-1.035,0.586-1.874,1.308-1.874C374.56,208.432,375.145,209.271,375.145,210.306z"/>
				<path style="fill:#FCAE00;" d="M387.085,284.599c0,0-23.698,0.564-51.832,7.712c0,0,27.164-3.911,50.958-4.033L387.085,284.599z
					"/>
				<path style="fill:#F06064;" d="M360.23,199.566c0.076,0.028,0.147,0.057,0.216,0.086c0.459,0.197,0.672,0.735,0.475,1.202
					c-0.196,0.466-0.731,0.683-1.184,0.491c-0.132-0.059-3.252-1.316-5.474,1.353c-0.323,0.389-0.894,0.44-1.275,0.113
					c-0.381-0.326-0.427-0.905-0.104-1.294C355.254,198.673,358.601,198.962,360.23,199.566z"/>
				<path style="fill:#FE9697;" d="M364.378,219.526c-0.12,0-0.229-0.081-0.262-0.204c-0.039-0.147,0.047-0.298,0.192-0.338
					c1.304-0.355,4.818-1.564,5.417-2.874c0.107-0.233,0.109-0.454,0.007-0.674c-3.038-6.586-3.784-13.262-3.791-13.329
					c-0.017-0.151,0.091-0.287,0.24-0.304c0.153-0.016,0.283,0.093,0.299,0.244c0.007,0.066,0.745,6.655,3.743,13.155
					c0.172,0.372,0.17,0.756-0.007,1.141c-0.829,1.811-5.567,3.119-5.768,3.174C364.425,219.523,364.401,219.526,364.378,219.526z"
					/>
				<path style="fill:#F06064;" d="M398.695,440.147c0,0,1.942,7.48,18.735,13.215l-1.714,5.309h-34.272l4.335-19.254"/>
				<polygon style="fill:#E54551;" points="385.6,440.216 399.152,441.145 399.53,441.856 384.549,444.88 				"/>
				<path style="fill:#A5B7B7;" d="M392.754,444.905c-0.18,0-0.349-0.113-0.412-0.293c-0.078-0.228,0.042-0.476,0.269-0.555
					c0.049-0.016,4.849-1.677,7.726-2.421c0.236-0.06,0.471,0.08,0.531,0.313c0.06,0.233-0.08,0.471-0.313,0.531
					c-2.843,0.734-7.61,2.384-7.658,2.401C392.849,444.898,392.802,444.905,392.754,444.905z"/>
				<path style="fill:#A5B7B7;" d="M395.534,448.354c-0.137,0-0.272-0.065-0.357-0.185c-0.138-0.198-0.091-0.469,0.106-0.608
					c0.046-0.032,4.611-3.245,5.918-4.304c0.184-0.152,0.46-0.123,0.613,0.065c0.152,0.186,0.122,0.461-0.065,0.613
					c-1.328,1.077-5.776,4.207-5.964,4.34C395.709,448.329,395.621,448.354,395.534,448.354z"/>
				<path style="fill:#A5B7B7;" d="M399.266,449.352c-0.105,0-0.209-0.038-0.293-0.113c-0.178-0.162-0.191-0.437-0.03-0.615
					l3.542-3.907c0.163-0.178,0.438-0.191,0.615-0.03c0.178,0.162,0.191,0.437,0.03,0.615l-3.542,3.907
					C399.503,449.303,399.384,449.352,399.266,449.352z"/>
				<path style="fill:#F06064;" d="M360.491,440.521c0,0,2.293,8.675,11.954,13.413l-1.431,3.74h-28.215l2.262-17.178"/>
				<path style="fill:#E54551;" d="M360.777,441.381h-15.832l-0.51,3.873c0,0,9.246-3.519,16.766-2.838L360.777,441.381z"/>
				<path style="fill:#A5B7B7;" d="M355.222,448.999c-0.207,0-0.391-0.148-0.428-0.359c-0.043-0.237,0.116-0.463,0.352-0.505
					c7.69-1.371,10.209-0.831,10.311-0.807c0.235,0.054,0.381,0.288,0.328,0.522c-0.054,0.235-0.283,0.379-0.52,0.329
					c-0.035-0.009-2.527-0.513-9.966,0.814C355.273,448.996,355.247,448.999,355.222,448.999z"/>
				<path style="fill:#A5B7B7;" d="M353.477,446.734c-0.207,0-0.391-0.148-0.428-0.359c-0.043-0.237,0.116-0.463,0.352-0.506
					c7.693-1.373,10.208-0.829,10.312-0.806c0.234,0.054,0.38,0.288,0.327,0.522c-0.053,0.234-0.284,0.379-0.52,0.328
					c-0.039-0.009-2.535-0.512-9.966,0.814C353.528,446.732,353.503,446.734,353.477,446.734z"/>
				<path style="fill:#A5B7B7;" d="M351.734,444.47c-0.207,0-0.391-0.148-0.428-0.359c-0.043-0.237,0.116-0.463,0.352-0.506
					c7.69-1.371,10.209-0.83,10.311-0.806c0.235,0.054,0.381,0.288,0.328,0.522c-0.054,0.234-0.283,0.379-0.52,0.328
					c-0.035-0.008-2.529-0.512-9.966,0.814C351.785,444.467,351.759,444.47,351.734,444.47z"/>
				<path style="fill:#5E1B23;" d="M376.579,337.18c0,0,25.885-8.092,35.928,5.327c8.889,11.877,1.696,48.082-13.171,98.878
					l-14.261-1.227c0,0,2.702-55.865,3.683-75.738l-20.483-0.711l-7.521,77.676h-15.771c0,0-5.33-56.355-9.255-77.947
					c0,0-21.591-3.435-16.193-25.026"/>
				<polygon style="fill:#511821;" points="388.758,364.42 388.758,357.427 386.761,364.42 				"/>
				<path style="fill:#511821;" d="M368.274,363.709c0,0,3.193-19.899-12.101-22.189c0,0,15.965,0.492,13.748,22.246
					L368.274,363.709z"/>
				<polygon style="fill:#511821;" points="335.727,363.439 334.418,355.669 333.777,362.981 				"/>
				<path style="fill:#F7DDD7;" d="M387.759,437.263c-0.003,0-0.007,0-0.011,0c-0.12-0.006-0.213-0.109-0.207-0.229l0.087-1.74
					c0.006-0.117,0.102-0.207,0.218-0.207c0.003,0,0.007,0,0.011,0c0.12,0.006,0.213,0.109,0.207,0.229l-0.087,1.74
					C387.971,437.173,387.874,437.263,387.759,437.263z M388.063,431.171c-0.003,0-0.007,0-0.011,0
					c-0.12-0.006-0.213-0.109-0.207-0.229l0.088-1.74c0.006-0.117,0.102-0.207,0.218-0.207c0.003,0,0.007,0,0.011,0
					c0.12,0.006,0.213,0.109,0.207,0.229l-0.088,1.74C388.275,431.081,388.179,431.171,388.063,431.171z M388.369,425.079
					c-0.003,0-0.007,0-0.011,0c-0.12-0.006-0.213-0.109-0.207-0.229l0.087-1.741c0.006-0.117,0.102-0.207,0.218-0.207
					c0.003,0,0.007,0,0.011,0c0.12,0.006,0.213,0.109,0.207,0.229l-0.087,1.741C388.581,424.989,388.485,425.079,388.369,425.079z
					 M388.674,418.987c-0.003,0-0.007,0-0.011,0c-0.12-0.006-0.213-0.109-0.207-0.229l0.087-1.741
					c0.006-0.12,0.091-0.208,0.229-0.207c0.12,0.006,0.213,0.109,0.207,0.229l-0.087,1.741
					C388.885,418.896,388.789,418.987,388.674,418.987z M388.978,412.894c-0.004,0-0.007,0-0.011,0
					c-0.12-0.006-0.213-0.109-0.207-0.229l0.088-1.741c0.006-0.117,0.102-0.207,0.218-0.207c0.003,0,0.007,0,0.011,0
					c0.12,0.006,0.213,0.109,0.207,0.229l-0.088,1.741C389.19,412.804,389.094,412.894,388.978,412.894z M389.284,406.802
					c-0.003,0-0.007,0-0.011,0c-0.12-0.006-0.213-0.109-0.207-0.229l0.087-1.741c0.006-0.117,0.102-0.207,0.218-0.207
					c0.003,0,0.007,0,0.011,0c0.12,0.006,0.213,0.109,0.207,0.229l-0.087,1.741C389.496,406.712,389.399,406.802,389.284,406.802z
					 M389.588,400.71c-0.003,0-0.007,0-0.011,0c-0.12-0.006-0.213-0.109-0.207-0.229l0.087-1.741
					c0.006-0.117,0.102-0.207,0.218-0.207c0.003,0,0.007,0,0.011,0c0.12,0.006,0.213,0.109,0.207,0.229l-0.087,1.741
					C389.8,400.62,389.704,400.71,389.588,400.71z M389.893,394.617c-0.003,0-0.007,0-0.011,0c-0.12-0.006-0.213-0.109-0.207-0.229
					l0.088-1.741c0.006-0.12,0.092-0.202,0.229-0.207c0.12,0.006,0.213,0.109,0.207,0.229l-0.088,1.741
					C390.105,394.527,390.009,394.617,389.893,394.617z M390.198,388.525c-0.003,0-0.007,0-0.011,0
					c-0.12-0.006-0.213-0.109-0.207-0.229l0.088-1.741c0.006-0.12,0.085-0.216,0.229-0.207c0.12,0.006,0.213,0.109,0.207,0.229
					l-0.088,1.741C390.41,388.435,390.313,388.525,390.198,388.525z M390.503,382.433c-0.003,0-0.007,0-0.011,0
					c-0.12-0.006-0.213-0.109-0.207-0.229l0.087-1.741c0.006-0.117,0.102-0.207,0.218-0.207c0.003,0,0.007,0,0.011,0
					c0.12,0.006,0.213,0.109,0.207,0.229l-0.087,1.741C390.715,382.343,390.619,382.433,390.503,382.433z M390.808,376.341
					c-0.003,0-0.007,0-0.011,0c-0.12-0.006-0.213-0.109-0.207-0.229l0.087-1.741c0.006-0.117,0.102-0.207,0.218-0.207
					c0.003,0,0.007,0,0.011,0c0.12,0.006,0.213,0.109,0.207,0.229l-0.087,1.741C391.02,376.25,390.924,376.341,390.808,376.341z
					 M391.112,370.248c-0.003,0-0.007,0-0.011,0c-0.12-0.006-0.213-0.109-0.207-0.229l0.088-1.741
					c0.006-0.12,0.094-0.197,0.229-0.207c0.12,0.006,0.213,0.109,0.207,0.229l-0.088,1.741
					C391.324,370.158,391.228,370.248,391.112,370.248z M391.418,364.156c-0.004,0-0.007,0-0.011,0
					c-0.12-0.006-0.213-0.109-0.207-0.229l0.087-1.741c0.006-0.12,0.087-0.211,0.229-0.207c0.12,0.006,0.213,0.109,0.207,0.229
					l-0.087,1.741C391.63,364.066,391.534,364.156,391.418,364.156z M391.723,358.063c-0.003,0-0.007,0-0.011,0
					c-0.12-0.006-0.213-0.109-0.207-0.229l0.087-1.74c0.006-0.117,0.102-0.207,0.218-0.207c0.003,0,0.007,0,0.011,0
					c0.12,0.006,0.213,0.109,0.207,0.229l-0.087,1.74C391.935,357.973,391.838,358.063,391.723,358.063z"/>
				<path style="fill:#F7DDD7;" d="M386.106,357.645h-1.743c-0.12,0-0.218-0.098-0.218-0.218s0.098-0.218,0.218-0.218h1.743
					c0.12,0,0.218,0.098,0.218,0.218S386.226,357.645,386.106,357.645z M380.006,357.645h-1.743c-0.12,0-0.218-0.098-0.218-0.218
					s0.098-0.218,0.218-0.218h1.743c0.12,0,0.218,0.098,0.218,0.218S380.126,357.645,380.006,357.645z M373.906,357.645h-1.049
					c-0.12,0-0.218-0.098-0.218-0.218s0.098-0.218,0.218-0.218h1.049c0.12,0,0.218,0.098,0.218,0.218
					S374.026,357.645,373.906,357.645z"/>
				<path style="fill:#F7DDD7;" d="M347.314,437.263c-0.109,0-0.203-0.081-0.216-0.191l-0.208-1.73
					c-0.014-0.12,0.071-0.228,0.19-0.243c0.128-0.012,0.227,0.071,0.242,0.19l0.208,1.73c0.015,0.12-0.071,0.228-0.19,0.242
					C347.331,437.263,347.323,437.263,347.314,437.263z M346.583,431.208c-0.109,0-0.203-0.081-0.216-0.191l-0.208-1.731
					c-0.014-0.12,0.071-0.228,0.19-0.242c0.13-0.014,0.228,0.071,0.242,0.19l0.208,1.731c0.014,0.12-0.071,0.228-0.19,0.242
					C346.6,431.207,346.592,431.208,346.583,431.208z M345.853,425.151c-0.109,0-0.203-0.081-0.216-0.191l-0.209-1.73
					c-0.014-0.12,0.071-0.228,0.19-0.243c0.134-0.019,0.228,0.07,0.242,0.19l0.209,1.73c0.014,0.12-0.071,0.228-0.19,0.243
					C345.87,425.15,345.862,425.151,345.853,425.151z M345.122,419.095c-0.109,0-0.203-0.081-0.216-0.191l-0.208-1.73
					c-0.014-0.12,0.071-0.228,0.19-0.242c0.123-0.011,0.228,0.071,0.242,0.19l0.208,1.73c0.015,0.12-0.071,0.228-0.19,0.242
					C345.139,419.095,345.131,419.095,345.122,419.095z M344.392,413.039c-0.109,0-0.202-0.081-0.216-0.191l-0.209-1.73
					c-0.014-0.12,0.071-0.228,0.19-0.243c0.127-0.014,0.227,0.071,0.242,0.19l0.209,1.73c0.014,0.12-0.071,0.228-0.19,0.242
					C344.409,413.038,344.401,413.039,344.392,413.039z M343.661,406.983c-0.109,0-0.203-0.081-0.216-0.191l-0.209-1.73
					c-0.014-0.12,0.071-0.228,0.19-0.242c0.129-0.019,0.227,0.07,0.243,0.19l0.208,1.73c0.014,0.12-0.071,0.228-0.19,0.242
					C343.678,406.982,343.67,406.983,343.661,406.983z M342.93,400.928c-0.109,0-0.203-0.081-0.216-0.191l-0.208-1.731
					c-0.014-0.12,0.071-0.228,0.19-0.243c0.132-0.01,0.229,0.071,0.243,0.19l0.208,1.731c0.014,0.12-0.071,0.228-0.19,0.243
					C342.947,400.927,342.939,400.928,342.93,400.928z M342.2,394.871c-0.109,0-0.203-0.081-0.216-0.191l-0.209-1.73
					c-0.014-0.12,0.071-0.228,0.19-0.242c0.123-0.014,0.228,0.071,0.243,0.19l0.209,1.73c0.015,0.12-0.071,0.228-0.19,0.242
					C342.217,394.87,342.208,394.871,342.2,394.871z M341.469,388.815c-0.109,0-0.203-0.081-0.216-0.191l-0.208-1.73
					c-0.014-0.12,0.071-0.228,0.19-0.242c0.125-0.019,0.228,0.07,0.242,0.19l0.208,1.73c0.014,0.12-0.071,0.228-0.19,0.243
					C341.486,388.815,341.477,388.815,341.469,388.815z M340.739,382.759c-0.109,0-0.203-0.081-0.216-0.191l-0.209-1.73
					c-0.014-0.12,0.071-0.228,0.19-0.242c0.128-0.01,0.227,0.071,0.243,0.19l0.209,1.73c0.014,0.12-0.071,0.228-0.19,0.242
					C340.756,382.758,340.747,382.759,340.739,382.759z M340.008,376.703c-0.109,0-0.202-0.081-0.216-0.192l-0.208-1.73
					c-0.014-0.12,0.071-0.228,0.19-0.243c0.129-0.014,0.228,0.071,0.243,0.19l0.208,1.73c0.014,0.12-0.071,0.228-0.19,0.243
					C340.025,376.702,340.016,376.703,340.008,376.703z M339.277,370.647c-0.109,0-0.203-0.081-0.216-0.191l-0.208-1.731
					c-0.015-0.12,0.071-0.228,0.19-0.242c0.133-0.017,0.229,0.07,0.243,0.19l0.209,1.731c0.014,0.12-0.071,0.228-0.19,0.243
					C339.294,370.647,339.285,370.647,339.277,370.647z M338.547,364.591c-0.109,0-0.203-0.081-0.216-0.191l-0.209-1.73
					c-0.014-0.12,0.071-0.228,0.19-0.242c0.123-0.009,0.228,0.071,0.243,0.19l0.209,1.73c0.014,0.12-0.071,0.228-0.19,0.243
					C338.564,364.59,338.555,364.591,338.547,364.591z M337.816,358.535c-0.109,0-0.203-0.081-0.216-0.191l-0.208-1.73
					c-0.014-0.12,0.071-0.228,0.19-0.243c0.126-0.014,0.229,0.071,0.243,0.19l0.208,1.73c0.014,0.12-0.071,0.228-0.19,0.242
					C337.833,358.535,337.824,358.535,337.816,358.535z M337.085,352.48c-0.109,0-0.202-0.081-0.216-0.191l-0.106-0.877
					c-0.108,0.011-0.255,0.024-0.437,0.037c-0.113,0.024-0.225-0.083-0.232-0.202c-0.008-0.12,0.082-0.224,0.202-0.232
					c0.398-0.028,0.625-0.059,0.629-0.059c0.055-0.005,0.116,0.008,0.163,0.043c0.046,0.036,0.076,0.089,0.082,0.146l0.132,1.091
					c0.014,0.12-0.071,0.228-0.19,0.242C337.102,352.479,337.094,352.48,337.085,352.48z M331.964,351.279
					c-0.01,0-0.02-0.001-0.031-0.003c-0.592-0.084-1.174-0.194-1.732-0.326c-0.117-0.027-0.19-0.145-0.162-0.262
					c0.027-0.117,0.141-0.191,0.262-0.162c0.545,0.128,1.114,0.237,1.693,0.319c0.119,0.017,0.202,0.127,0.185,0.246
					C332.164,351.201,332.071,351.279,331.964,351.279z"/>
				<path style="fill:#F7DDD7;" d="M323.426,349.805c-0.582,0-1.195-0.045-1.838-0.135c-0.119-0.017-0.202-0.128-0.186-0.247
					c0.016-0.119,0.13-0.197,0.247-0.186c2.592,0.366,4.664-0.031,6.157-1.177c1.893-1.453,2.181-3.641,2.184-3.663
					c0.014-0.119,0.108-0.204,0.242-0.19c0.119,0.015,0.204,0.123,0.19,0.243c-0.011,0.096-0.307,2.384-2.344,3.952
					C326.864,349.335,325.305,349.805,323.426,349.805z"/>
				<path style="fill:#FFFFFF;" d="M360.122,220.306c0,0,2.086,0.981,5.152,1.227C365.275,221.533,361.799,228.853,360.122,220.306z
					"/>
				<path style="fill:#FFFFFF;" d="M354.058,260.705l-7.921,6.219c0,0-11.669-19.948-2.727-24.327
					C343.41,242.597,343.577,257.513,354.058,260.705z"/>
				<path style="fill:#FFFFFF;" d="M361.869,259.268l7.249,2.831c0,0,1.402-17.476-6.619-17.939
					C362.5,244.16,366.234,254.147,361.869,259.268z"/>
				<path style="fill:#F06064;" d="M365.275,219.266c0,0-6.809,0.509-9.17,2.87c-2.362,2.361,4.906,1.667,8.894-1.435
					c0,0,6.228,1.619,7.531,0.392C373.832,219.867,365.275,219.266,365.275,219.266z"/>
				<path style="fill:#F06064;" d="M334.654,204.397c0,0,3.443,0.747,4.928,5.138c0,0,5.574-11.965,8.355-22.761
					c0,0,28.461,4.344,35.249,3.522c6.788-0.823-4.253-3.522-4.253-3.522s8.833-4.089,8.833-7.851c0-3.762-9.324,3.926-9.324,3.926
					s4.096-8.015,1.394-11.205c-2.702-3.19-4.691,8.097-4.691,8.097s-34.733-17.747-34.324-0.9c0,0-1.554-3.435-2.208-2.453
					s1.554,3.19,1.554,3.19s-6.461-0.409-9.896,3.926S334.654,204.397,334.654,204.397z"/>
			</g>
			<path style="fill:#FCAE00;" d="M380.401,329.702l6.651-31.764c-0.278-3.138-0.56-6.368-0.842-9.661l0.874-3.678
				c0-1.438-0.764-6.341-1.882-12.118l-38.892,1.035l-2.308,23.054c-3.674,0.551-6.58,1.236-6.58,1.236
				c-6.002-0.035-11.58,0.205-16.64,0.603c-0.257,4.13-0.612,9.771-1.013,15.93c10.413-2.804,19.084-5.574,19.084-5.574
				l-0.078-0.596l3.84,0.187c0,0,0.03,0.415,0.101,1.061l-1.988,19.859L380.401,329.702z"/>
			<path style="fill:#FECB00;" d="M327.681,246.891c0,0-8.318,2.495-15.903,9.183c-7.585,6.688-32.629,49.696-25.923,58.201
				c6.706,8.506,21.755-7.929,37.785-37.404"/>
			<polygon style="fill:#FFFFFF;" points="348.926,270.03 343.344,325.791 383.016,326.217 395.038,268.803 			"/>
			<path style="fill:#FECB00;" d="M293.542,299.882c0,0,18.729-5.725,46.495-5.561l1.431,10.959c0,0-44.655,14.269-52.997,10.815
				C280.13,312.64,287.586,301.375,293.542,299.882z"/>
			<polygon style="fill:#FCAE00;" points="319.7,283.888 322.692,278.6 320.574,288.455 			"/>
			<path style="fill:#FCAE00;" d="M311.07,296.294c0,0-7.877,1.297-13.602,2.115C297.468,298.41,305.697,295.488,311.07,296.294z"/>
			<polygon style="fill:#CCE3FF;" points="502.749,266.309 496.672,265.164 491.8,299.78 497.806,299.936 			"/>
			<polygon style="fill:#CCE3FF;" points="502.749,266.309 496.672,265.164 491.8,299.78 497.806,299.936 			"/>
			<path style="fill:#FFCAB3;" d="M340.038,294.32c0,0,14.026-3.312,19.424-1.227c5.398,2.085-11.348,2.699-11.348,2.699
				s11.654,2.76,13.679,5.704c2.024,2.944-13.249-2.515-13.249-2.515s7.299,6.747,7.361,9.569c0.061,2.822-8.587-6.257-8.587-6.257
				s2.944,11.041,0.736,11.041c-2.208,0-2.822-8.465-2.822-8.465l-3.84-0.187L340.038,294.32z"/>
			<polygon style="fill:#444F72;" points="436.167,317.415 434.217,311.332 487.918,311.332 494.709,263.078 500.787,264.223 
				492.966,317.415 			"/>
			<path style="fill:#FFCAB3;" d="M440.104,307.732c0,0,11.918-2.484,18.298,3.599h-17.569L440.104,307.732z"/>
			<polygon style="fill:#E1EAF9;" points="436.994,311.332 485.084,311.332 485.084,309.859 			"/>
			<path style="fill:#8CB9F9;" d="M52.603,151.168c-16.97,0-30.775-13.806-30.775-30.775s13.806-30.775,30.775-30.775
				c16.97,0,30.775,13.806,30.775,30.775S69.572,151.168,52.603,151.168z M52.603,91.36c-16.009,0-29.033,13.024-29.033,29.033
				s13.024,29.032,29.033,29.032c16.009,0,29.033-13.024,29.033-29.032S68.611,91.36,52.603,91.36z"/>
			<path style="fill:#8CB9F9;" d="M28.358,98.992c-0.104,0-0.208-0.036-0.292-0.112c-0.179-0.161-0.193-0.436-0.031-0.615
				c4.375-4.854,10.012-8.276,16.302-9.895c0.236-0.06,0.471,0.081,0.531,0.313c0.06,0.233-0.081,0.471-0.313,0.531
				c-6.124,1.576-11.613,4.907-15.873,9.634C28.595,98.944,28.477,98.992,28.358,98.992z"/>
			<path style="fill:none;stroke:#E8E8E8;stroke-linecap:round;stroke-miterlimit:10;" d="M19.974,120.392"/>
			<path style="fill:#8CB9F9;" d="M52.603,153.457c-7.053,0-13.783-2.19-19.462-6.332c-0.194-0.142-0.237-0.414-0.095-0.609
				c0.143-0.194,0.415-0.237,0.609-0.095c5.529,4.034,12.082,6.165,18.948,6.165c0.241,0,0.436,0.195,0.436,0.436
				S52.843,153.457,52.603,153.457z"/>
			<path style="fill:none;stroke:#E8E8E8;stroke-linecap:round;stroke-miterlimit:10;" d="M85.231,120.392"/>
			<path style="fill:#E8E8E8;" d="M61.755,89.5c-0.04,0-0.081-0.006-0.122-0.017c-2.92-0.852-5.958-1.283-9.031-1.283
				c-0.241,0-0.436-0.195-0.436-0.436c0-0.241,0.195-0.436,0.436-0.436c3.155,0,6.276,0.443,9.274,1.317
				c0.232,0.068,0.364,0.31,0.297,0.54C62.117,89.377,61.944,89.5,61.755,89.5z"/>
			<path style="fill:#8CB9F9;" d="M89.407,147.639c-0.019,0-0.037-0.001-0.055-0.002c-10.996-0.688-14.549-7.249-14.695-7.527
				c-0.223-0.427-0.059-0.953,0.368-1.176c0.426-0.225,0.951-0.06,1.175,0.365c0.132,0.247,3.302,5.975,13.261,6.599
				c0.48,0.03,0.845,0.444,0.815,0.924C90.247,147.285,89.863,147.639,89.407,147.639z"/>
			<path style="fill:#A7C7FF;" d="M699.302,176.501c-11.414,0-22.398-6.371-27.72-17.305c-7.426-15.257-1.054-33.713,14.204-41.14
				c15.257-7.428,33.712-1.055,41.14,14.204c7.426,15.257,1.054,33.713-14.204,41.14
				C708.397,175.504,703.815,176.501,699.302,176.501z M699.207,116.697c-4.259,0-8.58,0.939-12.659,2.926
				c-14.394,7.006-20.404,24.417-13.399,38.81c7.005,14.394,24.417,20.406,38.81,13.399c14.394-7.006,20.404-24.417,13.399-38.81
				C720.337,122.708,709.974,116.697,699.207,116.697z"/>
			<path style="fill:#A7C7FF;" d="M711.496,115.919c-0.054,0-0.11-0.01-0.163-0.032c-5.9-2.385-12.292-2.98-18.487-1.716
				c-0.233,0.049-0.466-0.104-0.514-0.34c-0.048-0.236,0.105-0.465,0.34-0.514c6.364-1.295,12.929-0.686,18.987,1.762
				c0.223,0.09,0.331,0.345,0.241,0.568C711.832,115.816,711.668,115.919,711.496,115.919z"/>
			<path style="fill:none;stroke:#E8E8E8;stroke-linecap:round;stroke-miterlimit:10;" d="M728.591,131.448"/>
			<path style="fill:none;stroke:#E8E8E8;stroke-linecap:round;stroke-miterlimit:10;" d="M669.915,160.007"/>
			<path style="fill:#A7C7FF;" d="M677.314,122.001c-0.118,0-0.236-0.049-0.322-0.143c-0.162-0.178-0.148-0.454,0.03-0.615
				c2.316-2.101,4.927-3.865,7.762-5.245c0.214-0.105,0.477-0.016,0.582,0.201c0.105,0.216,0.015,0.477-0.201,0.582
				c-2.76,1.344-5.303,3.062-7.558,5.107C677.523,121.963,677.418,122.001,677.314,122.001z"/>
			<path style="fill:#A7C7FF;" d="M677.705,186.421c-0.304,0-0.598-0.159-0.759-0.442c-0.237-0.419-0.09-0.951,0.328-1.188
				c8.684-4.921,9.026-11.461,9.037-11.737c0.017-0.48,0.412-0.884,0.899-0.84c0.479,0.015,0.856,0.415,0.843,0.894
				c-0.009,0.314-0.334,7.768-9.919,13.199C677.998,186.384,677.851,186.421,677.705,186.421z"/>
			<circle style="fill:#FECB00;" cx="336.618" cy="125.243" r="2.112"/>
			<path style="fill:#F06064;" d="M459.199,118.645c0,1.016-0.824,1.84-1.84,1.84s-1.84-0.824-1.84-1.84
				c0-1.016,0.824-1.84,1.84-1.84S459.199,117.629,459.199,118.645z"/>
			<polygon style="fill:#F06064;" points="452.206,218.587 474.288,222.022 453.387,223.658 			"/>
			<polygon style="fill:#F06064;" points="471.998,225.948 461.366,230.201 465.619,235.271 			"/>
			<path style="fill:#18C6C6;" d="M54.994,99.504c-1.198-0.22-2.431-0.34-3.692-0.34c-11.243,0-20.357,9.114-20.357,20.357
				c0,3.312,0.796,6.437,2.2,9.201l18.158-9.201L54.994,99.504z"/>
			<path style="fill:#8CB9F9;" d="M56.295,100.375l-3.692,20.017l-18.158,9.201c3.36,6.618,10.227,11.157,18.158,11.157
				c11.243,0,20.357-9.114,20.357-20.357C72.96,110.411,65.774,102.113,56.295,100.375z"/>
			<path style="fill:#A7C7FF;" d="M689.6,162.014c-0.963,0-1.743-0.78-1.743-1.743v-14.599c0-0.962,0.78-1.743,1.743-1.743
				c0.962,0,1.743,0.78,1.743,1.743v14.599C691.343,161.234,690.563,162.014,689.6,162.014z"/>
			<path style="fill:#A7C7FF;" d="M701.623,162.014c-0.962,0-1.743-0.78-1.743-1.743v-19.384c0-0.962,0.78-1.743,1.743-1.743
				c0.963,0,1.743,0.78,1.743,1.743v19.384C703.366,161.234,702.586,162.014,701.623,162.014z"/>
			<path style="fill:#F06064;" d="M695.612,162.014c-0.962,0-1.743-0.78-1.743-1.743v-25.149c0-0.962,0.78-1.743,1.743-1.743
				c0.963,0,1.743,0.78,1.743,1.743v25.149C697.355,161.234,696.574,162.014,695.612,162.014z"/>
			<path style="fill:#F06064;" d="M707.635,162.014c-0.963,0-1.743-0.78-1.743-1.743V128.13c0-0.962,0.78-1.743,1.743-1.743
				c0.962,0,1.743,0.78,1.743,1.743v32.142C709.378,161.234,708.597,162.014,707.635,162.014z"/>
		</g>
		<path style="fill:#E8E8E8;" d="M52.167,458.671h659.766C711.932,458.671,368.776,496.671,52.167,458.671z"/>
	</g>
</g>
</svg>
